<svg width="24" height="23" viewBox="0 0 24 23" fill="none" xmlns="http://www.w3.org/2000/svg">
<path d="M21.746 5.69005L21.7459 5.68996L21.0371 6.33989L20.6917 6.65663L20.3533 6.33242L17.4215 3.52364L17.0527 3.17028L17.4139 2.80907L18.093 2.12982L18.1005 2.12227L18.1006 2.12235C18.6527 1.59327 19.2713 1.30314 19.9273 1.30314C20.5827 1.30314 21.2024 1.59286 21.7538 2.12218L21.746 5.69005ZM21.746 5.69005L21.7539 5.68243M21.746 5.69005L21.7539 5.68243M21.7539 5.68243C22.296 5.1629 22.6283 4.5613 22.6283 3.90204M21.7539 5.68243L22.6283 3.90204M22.6283 3.90204C22.6283 3.24294 22.2962 2.64171 21.7543 2.12271L22.6283 3.90204ZM21.0617 2.84398L21.0622 2.84451C21.4805 3.24493 21.6283 3.60232 21.6283 3.90204C21.6283 4.2009 21.4813 4.55731 21.0659 4.95677L20.7067 5.28611L18.4822 3.15491L18.7962 2.84079C19.2082 2.44732 19.5892 2.30314 19.9273 2.30314C20.2666 2.30314 20.6498 2.44841 21.0617 2.84398ZM3.35746 17.0058L2.80849 16.7941L2.68816 17.3701L2.03961 20.474L1.88614 21.2085L2.62311 21.0673L5.86288 20.4467L6.46853 20.3307L6.22984 19.7621C5.96789 19.1381 5.57765 18.5728 5.08375 18.0994C4.5899 17.6261 4.00253 17.2545 3.35746 17.0058ZM3.17194 19.944L3.53805 18.1918C3.84965 18.3654 4.13672 18.5769 4.39183 18.8214C4.63368 19.0532 4.84374 19.3116 5.01804 19.5904L3.17194 19.944ZM17.4046 1.51422L17.407 1.51193C17.7347 1.19369 18.1261 0.939707 18.5592 0.765627C18.9919 0.591664 19.457 0.501225 19.9274 0.500001C20.3979 0.501006 20.8631 0.591261 21.296 0.765084C21.7292 0.939024 22.1208 1.19292 22.4487 1.51111L22.4487 1.51115L22.4541 1.51626C22.7868 1.82961 23.0499 2.20216 23.229 2.61154C23.4081 3.02086 23.5 3.45946 23.5 3.90192C23.5 4.34439 23.4081 4.78298 23.229 5.1923C23.0499 5.60168 22.7868 5.97423 22.4541 6.28758L22.4541 6.28757L22.4509 6.29057L6.94772 21.1474L6.78571 21.1787L6.78434 21.179L1.35647 22.2137L1.35647 22.2136L1.35037 22.2149L0.654866 22.3565L0.796126 21.7195L0.796172 21.7195L0.797553 21.7128L1.87748 16.5096L1.87756 16.5092L1.9073 16.3654L17.4046 1.51422ZM16.7265 4.13274L16.3806 3.80109L16.0346 4.13265L4.09519 15.573L3.57803 16.0686L4.22147 16.3832C5.39085 16.9551 6.3381 17.8641 6.93173 18.9772L7.24231 19.5596L7.71885 19.1029L19.6563 7.66345L20.0329 7.30252L19.6563 6.94151L16.7265 4.13274Z" fill="#585C60" stroke="#585C60"/>
</svg>
