<svg width="902" height="818" viewBox="0 0 902 818" fill="none" xmlns="http://www.w3.org/2000/svg">
<path d="M827.1 652.1C835.8 647.6 846.1 647 855.8 648.6C861.1 649.5 866.5 651 870.1 655C873.6 658.9 874.3 665.8 870.2 669.2C867.8 671.2 864.4 671.5 861.2 671.4C853.6 671.4 845.2 670 839.1 674.6C835.6 677.2 833.3 681.5 829.2 682.8C825.1 684.1 820.6 681.7 818.4 678C816.3 674.4 816.2 669.8 817.2 665.7C817.2 665.7 818.2 656.7 827.1 652.1Z" fill="#EBEBEB"/>
<path d="M807 613.4C812.4 621 822.8 618.5 827.6 613.8C832.4 609.2 834.4 602.4 836.3 596C840.5 581.2 844.8 565.8 841.7 550.8C840.7 546.3 839 541.8 835.9 538.5C832.7 535.1 827.9 533.2 823.5 534.3C818.2 535.7 815 540.8 812.6 545.7C805.7 560.1 802 576 801.9 592C801.9 599.4 802.8 607.2 807 613.4Z" fill="#EBEBEB"/>
<path d="M792.3 624.4C798.1 617.5 799.2 607.4 796.6 598.8C794 590.1 788.2 582.8 781.5 576.8C773.6 569.7 764.3 564.3 754.3 560.7C750.4 559.4 746.2 558.3 742.1 558.7C738 559.1 733.8 561.2 731.8 564.9C729 570.3 731.7 576.9 734.7 582.3C739.9 591.8 745.9 600.9 752.5 609.5C757.9 616.4 764 623.2 772.1 626.3C780.3 629.4 788.8 629 793.1 623.4" fill="#EBEBEB"/>
<path d="M806.6 728.7C806.7 728.7 806.9 727.5 807.1 725.3C807.367 722.767 807.667 719.6 808 715.8C808.5 711.8 809.1 707 810.2 701.9C811.3 696.7 813 691.1 815.2 685.5C817.5 679.8 820.3 674.7 823.6 670.6C826.9 666.5 830.7 663.5 834.2 661.8C837.8 660 840.9 659.3 843.1 659C845.4 658.8 846.6 658.6 846.6 658.5C846.6 658.4 845.4 658.4 843.1 658.5C840.8 658.6 837.5 659.2 833.8 660.9C830 662.5 826 665.6 822.6 669.8C819.1 674 816.2 679.2 813.9 684.9C811.6 690.7 809.9 696.3 808.9 701.6C807.8 706.9 807.3 711.7 807 715.7C806.7 719.7 806.6 723 806.6 725.2C806.5 727.5 806.5 728.7 806.6 728.7Z" fill="#E0E0E0"/>
<path d="M807.3 721.4C807.366 721.4 807.4 720.867 807.4 719.8C807.4 718.6 807.4 717.067 807.4 715.2C807.4 711.2 807.4 705.4 807.6 698.3C807.9 684 809.2 668.6 811.5 646.9C813.8 626.5 816.8 602.8 820 587.3C820.666 583.767 821.333 580.633 822 577.9C822.6 575.1 823.2 572.7 823.7 570.8C824.1 569 824.466 567.5 824.8 566.3C825 565.233 825.066 564.7 825 564.7C825 564.7 824.833 565.2 824.5 566.2C824.166 567.4 823.7 568.867 823.1 570.6C822.5 572.6 821.9 574.9 821.2 577.7C820.5 580.4 819.8 583.6 819 587.1C815.9 601.1 812.5 620.6 810.1 642.4C807.7 664.1 806.7 683.9 806.6 698.3C806.5 705.4 806.6 711.2 806.8 715.2C806.933 717.067 807.033 718.6 807.1 719.8C807.166 720.867 807.233 721.4 807.3 721.4Z" fill="#E0E0E0"/>
<path d="M807.4 683.3C807.5 683.3 807.5 681.5 807.4 678.4C807.2 675.4 806.8 670.9 805.9 665.4C805 659.9 803.7 653.4 801.6 646.4C800.8 643.2 798.7 635.4 793.7 623.9C787.1 608.3 778.1 595.5 770.3 587.5C768.5 585.4 766.5 583.9 764.8 582.4C764 581.7 763.3 581 762.5 580.5C761.766 579.967 761.066 579.467 760.4 579C757.8 577.2 756.4 576.3 756.3 576.4C756.1 576.7 762.1 580.2 769.6 588.2C777.1 596.3 785.8 609 792.4 624.5C796 632.9 798.6 640.4 800.4 646.8C802.4 653.7 803.8 660.2 804.9 665.6C805.9 671 806.4 675.4 806.8 678.5C807.1 681.6 807.3 683.3 807.4 683.3Z" fill="#E0E0E0"/>
<path d="M770.5 750.6L774.3 803H841.6L845.5 750.6H770.5Z" fill="#E0E0E0"/>
<path d="M764 730V750.6H853.5V730H764Z" fill="#E0E0E0"/>
<path d="M764 801V806.8H768.2H852V801H764Z" fill="#EBEBEB"/>
<path d="M772.3 816.8L768.2 806.8H848.8L844 816.8H772.3Z" fill="#E0E0E0"/>
<path d="M844.2 767.7C844.2 767.767 844.1 767.933 843.9 768.2C843.633 768.6 843.3 769.067 842.9 769.6C841.967 770.8 840.667 772.467 839 774.6L838.8 774.8L838.6 774.6C836.2 771.2 832.9 766.6 829 761.2H829.6C826.7 765.3 823.5 769.8 820.1 774.7L819.8 775.1L819.4 774.7C815.9 770.5 812.1 766 808.2 761.3H808.8C808.6 761.567 808.4 761.833 808.2 762.1C804.7 766.5 801.3 770.7 798.1 774.7L797.8 775.1L797.5 774.7C794.1 769.9 790.9 765.3 788 761.3H788.6C783.9 766.6 779.9 771.1 776.9 774.6L776.7 774.8L776.5 774.6C774.967 772 773.733 769.933 772.8 768.4C772.467 767.733 772.167 767.2 771.9 766.8C771.7 766.4 771.6 766.2 771.6 766.2C771.6 766.2 771.733 766.367 772 766.7C772.267 767.1 772.6 767.633 773 768.3C774 769.767 775.3 771.767 776.9 774.3H776.5C779.5 770.8 783.4 766.2 788 760.8L788.3 760.5L788.6 760.8C791.5 764.9 794.7 769.4 798.2 774.2H797.5C800.7 770.2 804.1 765.9 807.6 761.6C807.8 761.333 808 761.067 808.2 760.8L808.5 760.4L808.8 760.8C812.8 765.5 816.6 770 820 774.2H819.4C822.9 769.4 826.1 764.9 829 760.9L829.3 760.5L829.6 760.9C833.3 766.3 836.6 770.9 839 774.3H838.6C840.333 772.233 841.7 770.6 842.7 769.4C843.167 768.933 843.533 768.533 843.8 768.2C844.067 767.867 844.2 767.7 844.2 767.7Z" fill="#F5F5F5"/>
<path d="M846.4 750.3C846.4 750.5 829.5 750.7 808.7 750.7C787.9 750.7 771 750.5 771 750.3C771 750 787.9 749.9 808.7 749.9C829.5 749.9 846.4 750 846.4 750.3Z" fill="#F5F5F5"/>
<path d="M849.8 807.3C849.8 807.6 831.5 807.7 808.9 807.7C786.2 807.7 767.9 807.6 767.9 807.3C767.9 807.1 786.2 806.9 808.9 806.9C831.5 806.9 849.8 807.1 849.8 807.3Z" fill="#F5F5F5"/>
<path d="M880.3 190.6H743.9V48.5H880.3V190.6Z" fill="#E0E0E0"/>
<path d="M871 190.6H734.7V48.5H871V190.6Z" fill="#FAFAFA"/>
<path fill-rule="evenodd" clip-rule="evenodd" d="M871.1 190.7H734.6V48.3999H871.1V190.7ZM734.7 190.6H871V48.4999H734.7V190.6Z" fill="#E0E0E0"/>
<path d="M852.7 171.5H753V67.5999H852.7V171.5Z" fill="#FAFAFA"/>
<path d="M753 172.2C753.1 172.3 752.1 173.4 750.5 175.1C748.9 176.7 746.7 179 744.2 181.5C741.7 184 739.4 186.2 737.7 187.7C736 189.3 734.9 190.2 734.8 190.1C734.7 190 735.7 189 737.2 187.3C738.8 185.6 741.1 183.3 743.6 180.8C746.1 178.4 748.4 176.2 750.1 174.6C751.8 173 752.9 172.1 753 172.2Z" fill="#E0E0E0"/>
<path d="M852.7 172C852.8 171.9 853.9 172.8 855.6 174.4C857.3 176 859.5 178.2 862 180.8C864.5 183.3 866.7 185.6 868.2 187.3C869.8 189 870.7 190.1 870.6 190.1C870.5 190.2 869.5 189.3 867.8 187.7C866.1 186.1 863.8 183.9 861.3 181.3C858.9 178.8 856.7 176.5 855.1 174.8C853.5 173.1 852.6 172 852.7 172Z" fill="#E0E0E0"/>
<path d="M852.4 67.8C852.4 67.8 853.3 66.6999 854.9 64.9999C856.5 63.2999 858.7 61 861.2 58.6C863.7 56.1 866.1 53.9 867.8 52.3C869.5 50.8 870.5 49.7999 870.6 49.8999C870.7 49.9999 869.8 51.1 868.2 52.8C866.6 54.5 864.4 56.6999 861.8 59.1999C859.3 61.6999 857 63.8999 855.3 65.4999C853.6 66.9999 852.5 67.9 852.4 67.8Z" fill="#E0E0E0"/>
<path d="M752.7 68.0999C752.6 68.1999 751.5 67.1999 749.9 65.5999C748.2 63.9999 745.9 61.7999 743.4 59.2999C741 56.7999 738.8 54.4999 737.2 52.7999C735.6 51.0999 734.7 49.9999 734.8 49.8999C734.9 49.7999 736 50.7999 737.6 52.3999C739.3 53.8999 741.6 56.1999 744.1 58.6999C746.6 61.1999 748.8 63.4999 750.3 65.1999C751.9 66.8999 752.8 67.9999 752.7 68.0999Z" fill="#E0E0E0"/>
<path d="M852.4 171.5C852.4 171.5 852.4 171.333 852.4 171C852.4 170.667 852.4 170.2 852.4 169.6C852.4 168.267 852.4 166.367 852.4 163.9C852.3 159 852.3 151.9 852.3 142.8C852.2 124.6 852.1 98.5999 852.1 67.5999L852.4 67.9998C823.4 67.9998 789.3 67.9998 753 67.9998L753.4 67.5999C753.4 105.7 753.4 141.4 753.4 171.5L753 171.1C782.8 171.2 807.6 171.3 825 171.3C833.7 171.4 840.5 171.4 845.2 171.4C847.533 171.467 849.333 171.5 850.6 171.5C851.2 171.5 851.667 171.5 852 171.5C851.667 171.5 851.233 171.533 850.7 171.6C849.433 171.6 847.667 171.6 845.4 171.6C840.7 171.6 833.9 171.7 825.2 171.7C807.8 171.7 782.9 171.8 753 171.9H752.6V171.5C752.6 141.4 752.6 105.7 752.6 67.5999V67.0999H753C789.3 67.0999 823.4 67.1998 852.4 67.1998H852.8V67.5999C852.7 98.6999 852.7 124.7 852.6 143C852.6 152.1 852.6 159.2 852.5 164.1C852.5 166.5 852.5 168.333 852.5 169.6C852.5 170.2 852.5 170.7 852.5 171.1C852.5 171.367 852.467 171.5 852.4 171.5Z" fill="#E0E0E0"/>
<path d="M819.5 136.2H786.2V102.9H819.5V136.2Z" fill="#EBEBEB"/>
<path d="M880.3 366.5H743.9V224.3H880.3V366.5Z" fill="#E0E0E0"/>
<path d="M871 366.5H734.7V224.3H871V366.5Z" fill="#FAFAFA"/>
<path fill-rule="evenodd" clip-rule="evenodd" d="M871.1 366.6H734.6V224.3H871.1V366.6ZM734.7 366.5H871V224.4H734.7V366.5Z" fill="#E0E0E0"/>
<path d="M852.7 347.4H753V243.5H852.7V347.4Z" fill="#FAFAFA"/>
<path d="M753 348.1C753.1 348.2 752.1 349.3 750.5 351C748.9 352.6 746.7 354.9 744.2 357.4C741.7 359.8 739.4 362 737.7 363.6C736 365.2 734.9 366.1 734.8 366C734.7 365.9 735.7 364.8 737.2 363.2C738.8 361.5 741.1 359.2 743.6 356.7C746.1 354.2 748.4 352 750.1 350.5C751.8 348.9 752.9 348 753 348.1Z" fill="#E0E0E0"/>
<path d="M852.7 347.8C852.8 347.8 853.9 348.7 855.6 350.3C857.3 351.9 859.5 354.1 862 356.6C864.5 359.1 866.7 361.4 868.2 363.1C869.8 364.8 870.7 365.9 870.6 366C870.5 366.1 869.5 365.2 867.8 363.6C866.1 362 863.8 359.7 861.3 357.2C858.9 354.7 856.7 352.4 855.1 350.7C853.5 349 852.6 347.9 852.7 347.8Z" fill="#E0E0E0"/>
<path d="M852.4 243.7C852.4 243.6 853.3 242.5 854.9 240.9C856.5 239.2 858.7 236.9 861.2 234.4C863.7 232 866.1 229.8 867.8 228.2C869.5 226.6 870.5 225.7 870.6 225.8C870.7 225.9 869.8 227 868.2 228.7C866.6 230.3 864.4 232.6 861.8 235.1C859.3 237.6 857 239.8 855.3 241.3C853.6 242.9 852.5 243.8 852.4 243.7Z" fill="#E0E0E0"/>
<path d="M752.7 244C752.6 244.1 751.5 243.1 749.9 241.5C748.2 239.9 745.9 237.7 743.4 235.2C741 232.7 738.8 230.4 737.2 228.7C735.6 227 734.7 225.9 734.8 225.8C734.9 225.7 736 226.6 737.6 228.2C739.3 229.8 741.6 232.1 744.1 234.6C746.6 237.1 748.8 239.4 750.3 241.1C751.9 242.8 752.8 243.9 752.7 244Z" fill="#E0E0E0"/>
<path d="M852.4 347.4C852.4 347.4 852.4 347.233 852.4 346.9C852.4 346.566 852.4 346.066 852.4 345.4C852.4 344.133 852.4 342.266 852.4 339.8C852.3 334.9 852.3 327.7 852.3 318.6C852.2 300.4 852.1 274.5 852.1 243.5L852.4 243.8C823.4 243.9 789.3 243.9 753 243.9L753.4 243.5C753.4 281.6 753.4 317.3 753.4 347.4L753 347C782.8 347.1 807.6 347.2 825 347.2C833.7 347.3 840.5 347.3 845.2 347.3C847.533 347.3 849.333 347.333 850.6 347.4C851.2 347.4 851.667 347.4 852 347.4C851.667 347.4 851.233 347.4 850.7 347.4C849.433 347.466 847.667 347.5 845.4 347.5C840.7 347.5 833.9 347.5 825.2 347.6C807.8 347.6 782.9 347.7 753 347.8H752.6V347.4C752.6 317.3 752.6 281.6 752.6 243.5V243H753C789.3 243 823.4 243.1 852.4 243.1H852.8V243.5C852.7 274.6 852.7 300.6 852.6 318.9C852.6 328 852.6 335.1 852.5 340C852.5 342.4 852.5 344.233 852.5 345.5C852.5 346.1 852.5 346.566 852.5 346.9C852.5 347.233 852.467 347.4 852.4 347.4Z" fill="#E0E0E0"/>
<path d="M819.5 312.1H786.2V278.8H819.5V312.1Z" fill="#EBEBEB"/>
<path d="M448.9 144.9L450.1 146.9C451.4 149.1 453.4 150.9 455.7 152L457.7 153L455.8 154.2C453.6 155.5 451.8 157.5 450.6 159.8L449.6 161.8L448.4 159.9C447.1 157.7 445.2 155.9 442.9 154.7L440.8 153.7L442.8 152.5C445 151.2 446.8 149.3 447.9 147L448.9 144.9Z" fill="#E0E0E0"/>
<path d="M659.8 89.8L661 91.8C662.3 94 664.2 95.8 666.5 96.9L668.6 97.9L666.6 99.1001C664.4 100.4 662.6 102.4 661.5 104.7L660.5 106.7L659.3 104.8C658 102.6 656 100.8 653.7 99.6001L651.7 98.6001L653.6 97.4C655.8 96.1 657.6 94.2 658.8 91.9L659.8 89.8Z" fill="#E0E0E0"/>
<path d="M552.4 23L553 23.9C553.6 25 554.6 25.9 555.8 26.5L556.8 27L555.8 27.6C554.7 28.3 553.8 29.2 553.2 30.4L552.7 31.4L552.1 30.4C551.5 29.3 550.5 28.4 549.4 27.9L548.3 27.4L549.3 26.8C550.4 26.1 551.3 25.1 551.9 24L552.4 23Z" fill="#E0E0E0"/>
<path d="M634 90.5999L634.6 91.4998C635.2 92.5998 636.2 93.4999 637.4 94.0999L638.4 94.5999L637.4 95.1998C636.3 95.8998 635.4 96.7998 634.8 97.9998L634.3 98.9998L633.7 97.9998C633.1 96.8998 632.1 95.9998 630.9 95.4998L629.9 94.9998L630.9 94.3998C632 93.6998 632.9 92.6999 633.5 91.5999L634 90.5999Z" fill="#E0E0E0"/>
<path d="M556.6 162.7L557.2 163.7C557.9 164.8 558.8 165.6 560 166.2L561 166.7L560 167.3C558.9 168 558.1 169 557.5 170.1L557 171.1L556.4 170.2C555.7 169.1 554.7 168.2 553.6 167.6L552.6 167.1L553.5 166.5C554.6 165.8 555.5 164.9 556.1 163.7L556.6 162.7Z" fill="#E0E0E0"/>
<path d="M650.9 222.6C651.6 217.3 644.2 213 638.6 212.5C635.9 212.3 633.1 212.7 630.6 211.8C625.1 209.9 622.9 202.9 617.6 200.6C613.6 198.9 609 200.4 605.1 202.4C601.3 204.3 597.4 206.8 593.1 207C589.3 207.3 585.2 205.9 582 207.7C579.5 209.1 578.2 211.9 576 213.6C573.7 215.2 570.9 215.6 568.1 215.7C565.4 215.9 562.5 215.9 560 217C557.5 218.2 555.5 220.8 556 223.5L650.9 222.6Z" fill="#EBEBEB"/>
<path d="M480.4 31.8999C481.4 24.6999 471.2 18.6999 463.5 18.0999C459.8 17.7999 456 18.3999 452.6 17.1999C445 14.4999 442 4.79993 434.7 1.69993C429.2 -0.600067 422.9 1.49993 417.6 4.19993C412.3 6.79993 407 10.1999 401.1 10.5999C395.9 10.8999 390.3 8.99994 385.8 11.4999C382.4 13.3999 380.7 17.2999 377.6 19.5999C374.5 21.7999 370.6 22.2999 366.8 22.4999C363.1 22.6999 359.2 22.6999 355.7 24.2999C352.3 25.8999 349.5 29.4999 350.2 33.1999L480.4 31.8999Z" fill="#F5F5F5"/>
<path d="M268 395H36.5999V11.8999H268V395Z" fill="#E0E0E0"/>
<path d="M260.3 395H28.8999V11.8999H260.3V395Z" fill="#EBEBEB"/>
<path d="M250.5 387.2H38.7V19.5999H250.5V387.2Z" fill="#FAFAFA"/>
<path d="M209.2 339.5H79V67.3999H209.2V339.5Z" fill="#EBEBEB"/>
<path d="M79 243.2C78.7 217.8 101.6 193 126.8 189.4C138.8 187.7 151.5 190.1 162.7 185.5C182.7 177.3 189.1 150.7 209.2 142.8L210.2 339.5H79V243.2Z" fill="#E0E0E0"/>
<path d="M114.8 136.9C114.8 136.9 114.867 137.067 115 137.4C115.067 137.8 115.2 138.333 115.4 139C115.6 139.7 115.9 140.6 116.2 141.6C116.6 142.6 117 143.8 117.6 145.1C117.867 145.7 118.133 146.367 118.4 147.1C118.8 147.767 119.2 148.467 119.6 149.2C119.9 150 120.4 150.8 120.9 151.5C121.4 152.3 121.8 153.1 122.4 153.9C124.7 157.2 127.6 160.7 131.4 163.9C135.1 167.2 139.7 170.2 145.1 172.4C147.8 173.6 150.7 174.4 153.7 175.1C156.8 175.8 159.9 176.2 163.2 176.5C169.8 177.1 176.8 177.5 183.6 180.2C190.4 182.9 196.3 187.8 201.4 193.5C206.5 199.2 210.9 205.3 213.6 212C215 215.4 215.8 218.9 216.1 222.4C216.3 225.9 216 229.3 215.4 232.6C214.2 239.1 211.9 245 210 250.5C208.1 256.1 206.4 261.3 205.7 266.2C205 271.1 205.2 275.7 206.2 279.5C207.2 283.3 208.9 286.4 210.6 288.5C212.3 290.7 214 292.1 215.3 292.9C216.5 293.6 217.2 293.9 217.2 294C217.2 294 216.4 293.7 215.2 293C213.9 292.2 212.1 290.9 210.4 288.7C208.6 286.5 206.9 283.5 205.9 279.6C204.8 275.7 204.5 271.1 205.3 266.1C206 261.2 207.6 255.9 209.5 250.4C211.4 244.8 213.6 238.9 214.8 232.5C215.4 229.2 215.7 225.9 215.4 222.4C215.2 219 214.3 215.6 213 212.3C210.3 205.7 205.9 199.6 200.9 193.9C195.8 188.3 190 183.5 183.4 180.8C176.7 178.1 169.7 177.7 163.2 177.1C159.9 176.8 156.7 176.4 153.6 175.7C150.5 175 147.6 174.2 144.9 173C139.4 170.7 134.8 167.6 131 164.3C127.3 161 124.3 157.5 122.1 154.1C121.5 153.3 121.1 152.5 120.6 151.7C120.1 150.9 119.7 150.2 119.3 149.4C118.9 148.667 118.533 147.933 118.2 147.2C117.867 146.467 117.567 145.8 117.3 145.2C116.7 143.9 116.4 142.7 116 141.7C115.7 140.7 115.5 139.8 115.3 139.1C115.167 138.367 115.033 137.8 114.9 137.4C114.833 137.067 114.8 136.9 114.8 136.9Z" fill="#455A64"/>
<path d="M155.9 116.1C156.233 116.367 156.633 116.767 157.1 117.3C157.7 117.8 158.3 118.5 159 119.4C159.7 120.2 160.6 121.2 161.4 122.4C163 124.8 164.8 127.8 166.3 131.7C167.8 135.5 169 140.1 169.3 145.3C169.4 147.8 169.4 150.6 169 153.4C168.7 156.2 168 159 167.1 162C165.5 167.8 163 173.8 161.4 180.4C160.6 183.7 160 187.1 159.9 190.6C159.8 194.2 160.2 197.8 161 201.4C162.6 208.6 166 215.6 170.9 221.7C175.8 227.8 182 232.5 188.4 236C194.9 239.5 201.8 241.8 208.4 243C215.1 244.2 221.6 244.5 227.6 245.5C233.6 246.3 239.2 247.8 243.7 250.3C248.3 252.8 251.8 256.1 254.4 259.2C257 262.4 258.7 265.6 259.8 268.2C260.9 270.9 261.4 273.1 261.8 274.6C261.867 275.333 261.933 275.9 262 276.3C261.867 275.9 261.733 275.333 261.6 274.6C261.2 273.2 260.7 271 259.6 268.3C258.4 265.7 256.7 262.6 254.1 259.5C251.5 256.3 248 253.2 243.5 250.8C239 248.3 233.5 246.9 227.5 246C221.5 245.1 215.1 244.8 208.3 243.6C201.6 242.4 194.7 240.1 188.1 236.6C181.6 233.1 175.3 228.3 170.4 222.1C165.4 215.9 162 208.8 160.4 201.5C159.6 197.9 159.2 194.2 159.3 190.6C159.4 187 159.9 183.5 160.8 180.2C162.5 173.6 164.9 167.6 166.6 161.8C167.5 158.9 168.1 156.1 168.5 153.3C168.9 150.5 169 147.8 168.8 145.3C168.5 140.2 167.4 135.6 166 131.8C164.5 128 162.8 124.9 161.1 122.6C160.4 121.3 159.5 120.4 158.9 119.5C158.2 118.7 157.6 117.9 157 117.4C156.533 116.867 156.167 116.433 155.9 116.1Z" fill="#455A64"/>
<path d="M254.8 259C254.9 259 254.3 259.5 253.3 260.4C252.2 261.3 250.7 262.5 248.8 264C244.9 267 239.4 270.9 233.1 274.9C226.7 278.8 220.8 281.9 216.3 284C214.1 285.1 212.4 285.9 211.1 286.4C209.8 286.9 209.1 287.2 209.1 287.2C209.1 287.1 209.8 286.8 211 286.2C212.333 285.533 214.033 284.667 216.1 283.6C220.5 281.4 226.4 278.2 232.7 274.3C239 270.4 244.6 266.5 248.5 263.6C250.367 262.2 251.9 261.067 253.1 260.2C254.2 259.4 254.8 258.9 254.8 259Z" fill="#455A64"/>
<path d="M244.1 250.6C244.1 250.6 243.6 251 242.5 251.5C241.367 252.167 239.933 252.967 238.2 253.9C234.5 255.9 229.4 258.7 224 262.1C218.5 265.4 213.7 268.7 210.3 271C208.633 272.2 207.267 273.167 206.2 273.9C205.2 274.5 204.7 274.9 204.7 274.9C204.6 274.8 205.1 274.4 206 273.7C207 272.9 208.3 271.9 210 270.7C213.4 268.2 218.2 264.9 223.6 261.5C229.1 258.2 234.2 255.4 237.9 253.5C239.8 252.5 241.3 251.8 242.4 251.3C243.5 250.8 244.1 250.6 244.1 250.6Z" fill="#455A64"/>
<path d="M228.7 247.4C228.7 247.4 227.6 248.3 225.6 249.6C223.7 250.9 220.9 252.7 217.8 254.5C214.7 256.4 211.9 258 209.8 259.1C207.8 260.2 206.4 260.8 206.4 260.8C206.4 260.7 207.6 259.9 209.6 258.7C211.8 257.4 214.5 255.7 217.5 254C220.5 252.2 223.2 250.5 225.4 249.2C227.4 248 228.6 247.3 228.7 247.4Z" fill="#455A64"/>
<path d="M214.3 230.4C214.4 230.4 213.5 231.1 212 232.1C210.267 233.233 208.333 234.5 206.2 235.9C204.067 237.367 202.167 238.7 200.5 239.9C199 240.9 198.1 241.5 198 241.4C198 241.3 198.8 240.6 200.2 239.5C201.6 238.4 203.6 236.9 205.8 235.4C208.1 233.8 210.2 232.5 211.8 231.7C213.3 230.8 214.3 230.3 214.3 230.4Z" fill="#455A64"/>
<path d="M213.2 215.2C213.2 215.3 211.5 216.2 208.8 217.8C206 219.4 202.3 221.7 198.3 224.4C194.4 227.2 191 230 188.5 232C186.1 234 184.7 235.4 184.6 235.3C184.6 235.3 184.9 234.9 185.5 234.2C186.1 233.6 187.1 232.7 188.2 231.6C190.6 229.5 194 226.7 197.9 223.9C201.9 221.1 205.7 218.9 208.5 217.4C209.9 216.6 211.1 216.1 211.9 215.7C212.7 215.3 213.2 215.2 213.2 215.2Z" fill="#455A64"/>
<path d="M205.7 203.4C205.8 203.6 198.8 208.7 190 214.8C181.3 220.9 174.1 225.7 174 225.6C173.9 225.4 180.9 220.3 189.6 214.2C198.4 208.1 205.6 203.3 205.7 203.4Z" fill="#455A64"/>
<path d="M199.7 190.2C199.7 190.2 199.3 190.6 198.4 191.2C197.4 191.867 196.133 192.7 194.6 193.7C191.4 195.9 187 198.9 182.2 202.3C177.4 205.7 173.2 208.9 170.1 211.2C168.633 212.267 167.433 213.167 166.5 213.9C165.6 214.6 165.1 214.9 165.1 214.9C165.1 214.8 165.5 214.4 166.3 213.7C167.1 213 168.3 212 169.8 210.8C172.8 208.4 177 205.1 181.8 201.7C186.6 198.3 191.1 195.4 194.3 193.3C196 192.3 197.3 191.5 198.2 191C199.2 190.4 199.7 190.1 199.7 190.2Z" fill="#455A64"/>
<path d="M187.4 182.8C187.5 183 181.5 187.3 174.1 192.5C166.6 197.6 160.5 201.7 160.4 201.6C160.3 201.4 166.3 197.1 173.7 191.9C181.2 186.7 187.3 182.7 187.4 182.8Z" fill="#455A64"/>
<path d="M174.4 175.4C174.6 175.6 171.5 178.2 167.6 181.3C163.7 184.5 160.5 186.9 160.3 186.7C160.2 186.6 163.3 183.9 167.2 180.8C171.1 177.7 174.3 175.3 174.4 175.4Z" fill="#455A64"/>
<path d="M165.7 156.9C165.8 156.9 164.7 158 162.8 159.6C160.9 161.1 158.3 163.3 155.3 165.5C152.3 167.8 149.5 169.7 147.5 171C145.4 172.4 144.1 173.1 144 173C144 173 145.2 172.1 147.2 170.6C149.2 169.2 151.9 167.2 154.9 165C157.9 162.7 160.6 160.7 162.5 159.2C164.4 157.7 165.7 156.8 165.7 156.9Z" fill="#455A64"/>
<path d="M169.5 144.2C169.5 144.3 169 144.6 168.1 145.3C167.3 145.9 166 146.8 164.4 147.8C161.2 150 156.6 152.8 151.5 155.8C146.4 158.7 141.7 161.2 138.2 163C136.5 163.8 135.1 164.5 134.1 164.9C133.1 165.4 132.6 165.6 132.6 165.6C132.5 165.5 133.1 165.2 134 164.7C135.067 164.1 136.4 163.367 138 162.5C141.4 160.7 146.1 158.2 151.2 155.2C156.3 152.3 160.8 149.5 164.1 147.4C165.633 146.467 166.933 145.667 168 145C168.9 144.5 169.4 144.2 169.5 144.2Z" fill="#455A64"/>
<path d="M163.5 130.7C163.5 130.8 163 131.1 162 131.8C161.1 132.5 159.7 133.5 157.9 134.6C154.4 137 149.5 140.1 144.1 143.5C138.6 146.9 133.6 149.8 130 151.9C128.1 153 126.7 153.8 125.6 154.4C124.6 154.9 124 155.2 124 155.2C124 155.1 124.5 154.8 125.5 154.1C126.633 153.433 128.033 152.567 129.7 151.5C133.4 149.2 138.3 146.2 143.7 142.9C149.1 139.6 154 136.5 157.6 134.2C159.333 133.133 160.767 132.267 161.9 131.6C162.9 131 163.4 130.7 163.5 130.7Z" fill="#455A64"/>
<path d="M689.7 529.4C689.6 529.5 688.1 528 685.3 525.6C683.8 524.4 682 522.9 679.9 521.3C677.7 519.7 675.2 518 672.2 516.5C670.7 515.7 669.1 515 667.4 514.4C665.7 513.9 663.9 513.4 662 513.5C661.1 513.5 660.2 513.7 659.4 514.1C658.6 514.5 658 515.2 657.6 516C657.2 516.8 657 517.8 657 518.8C657 519.8 657.2 520.9 657.4 521.9C657.9 524 658.8 526.1 659.8 528.2C660.8 530.267 661.967 532.3 663.3 534.3C666 538.4 669.2 542.2 672.7 545.9C676.3 549.6 680.1 552.9 684 555.7C686 557.1 688 558.333 690 559.4C692.1 560.5 694.1 561.4 696.2 561.9C697.3 562.2 698.3 562.4 699.3 562.4C700.3 562.4 701.3 562.3 702.2 562C703 561.6 703.7 561 704.1 560.2C704.6 559.5 704.8 558.5 704.8 557.6C705 555.8 704.6 553.9 704 552.2C703.5 550.5 702.8 548.8 702.1 547.3C700.7 544.3 699 541.7 697.5 539.5C696 537.3 694.6 535.5 693.4 534C691.1 531.1 689.6 529.5 689.7 529.4C689.767 529.4 690.167 529.733 690.9 530.4C691.6 531.1 692.7 532.2 693.9 533.6C695.2 535 696.7 536.8 698.3 539C699.9 541.2 701.6 543.7 703.2 546.8C703.9 548.3 704.7 550 705.3 551.8C705.8 553.6 706.3 555.6 706.2 557.7C706.2 558.8 706 559.9 705.4 560.9C704.8 562 703.9 562.8 702.8 563.3C701.7 563.8 700.5 563.9 699.3 563.9C698.1 563.9 697 563.7 695.8 563.4C693.6 562.8 691.4 561.9 689.3 560.8C687.167 559.733 685.1 558.467 683.1 557C679 554.2 675.2 550.8 671.5 547.1C667.9 543.3 664.6 539.4 661.9 535.2C660.567 533.133 659.367 531.033 658.3 528.9C657.3 526.7 656.4 524.5 655.9 522.3C655.7 521.1 655.5 520 655.5 518.8C655.5 517.6 655.7 516.4 656.3 515.4C656.8 514.3 657.7 513.3 658.7 512.8C659.8 512.3 660.9 512.1 662 512.1C664.1 512 666 512.6 667.8 513.2C669.6 513.8 671.2 514.6 672.8 515.5C675.8 517.1 678.3 518.9 680.4 520.6C682.6 522.2 684.3 523.8 685.7 525.1C687.1 526.4 688.1 527.5 688.8 528.2C689.467 529 689.767 529.4 689.7 529.4Z" fill="#455A64"/>
<path d="M670.5 534.2C670.7 534.3 670.1 536.2 669.3 539.8C668.9 541.6 668.5 543.8 668.2 546.3C667.9 548.9 667.6 551.9 667.7 555.1C667.8 556.7 667.9 558.4 668.2 560.1C668.6 561.8 669.1 563.6 670 565.1C670.5 565.9 671.1 566.5 671.8 567C672.5 567.5 673.4 567.7 674.3 567.7C675.2 567.6 676.1 567.4 676.9 566.9C677.833 566.433 678.7 565.867 679.5 565.2C681.1 563.9 682.5 562.2 683.8 560.5C685.133 558.7 686.367 556.767 687.5 554.7C689.7 550.6 691.6 546.1 693.1 541.4C694.6 536.7 695.7 531.9 696.2 527.3C696.467 524.967 696.567 522.7 696.5 520.5C696.5 518.2 696.2 516.1 695.7 514C695.433 513 695.067 512.067 694.6 511.2C694.2 510.3 693.6 509.6 692.9 509C692.2 508.5 691.3 508.2 690.5 508.2C689.6 508.1 688.7 508.3 687.9 508.7C686.3 509.4 684.8 510.5 683.6 511.7C682.3 512.9 681.2 514.2 680.3 515.5C678.3 518.1 676.8 520.7 675.6 523C674.4 525.2 673.5 527.3 672.8 529C671.3 532.3 670.7 534.3 670.5 534.2C670.5 534.2 670.6 533.733 670.8 532.8C671.1 531.8 671.5 530.5 672.1 528.7C672.8 527 673.6 524.9 674.8 522.5C675.9 520.2 677.4 517.5 679.3 514.8C680.3 513.5 681.4 512.1 682.7 510.8C684 509.5 685.5 508.3 687.4 507.4C688.3 507 689.4 506.7 690.5 506.7C691.7 506.7 692.8 507.2 693.8 507.9C694.7 508.6 695.4 509.5 696 510.5C696.533 511.5 696.933 512.533 697.2 513.6C697.8 515.8 698 518.1 698.1 520.4C698.167 522.733 698.067 525.1 697.8 527.5C697.3 532.2 696.2 537.1 694.7 541.9C693.2 546.7 691.2 551.3 688.9 555.5C687.767 557.567 686.5 559.533 685.1 561.4C683.7 563.3 682.2 565 680.4 566.4C679.533 567.133 678.6 567.767 677.6 568.3C676.6 568.8 675.5 569.1 674.3 569.1C673.1 569.2 672 568.8 671 568.2C670.1 567.6 669.4 566.7 668.8 565.8C667.8 564 667.3 562.1 667 560.3C666.6 558.5 666.5 556.8 666.5 555.1C666.5 551.8 666.8 548.8 667.3 546.2C667.7 543.6 668.2 541.4 668.7 539.6C669.2 537.9 669.6 536.5 669.9 535.6C670.233 534.667 670.433 534.2 670.5 534.2Z" fill="#455A64"/>
<path d="M677.1 525C677.1 525.1 675.2 525.6 671.7 526.9C670 527.5 667.9 528.3 665.5 529.3C663.2 530.4 660.6 531.7 657.9 533.5C656.5 534.4 655.1 535.4 653.9 536.6C652.6 537.8 651.3 539.2 650.6 540.8C650.2 541.6 649.9 542.4 649.9 543.3C649.9 544.2 650.1 545 650.6 545.7C651.1 546.5 651.8 547.1 652.7 547.6C653.5 548.133 654.4 548.567 655.4 548.9C657.4 549.5 659.6 549.9 661.8 550.1C664 550.233 666.267 550.267 668.6 550.2C673.3 549.9 678.1 549.1 682.9 547.9C687.7 546.7 692.3 545.1 696.5 543.1C698.633 542.1 700.633 541 702.5 539.8C704.3 538.6 706.1 537.3 707.5 535.8C708.233 535 708.833 534.167 709.3 533.3C709.8 532.5 710.2 531.6 710.3 530.7C710.3 529.8 710.2 529 709.8 528.2C709.3 527.5 708.7 526.8 708 526.3C706.5 525.3 704.8 524.7 703.1 524.2C701.4 523.8 699.7 523.6 698.1 523.4C694.9 523.1 691.9 523.2 689.3 523.3C686.8 523.5 684.5 523.8 682.7 524.1C679.1 524.6 677.1 525.1 677.1 525C677.1 524.933 677.567 524.767 678.5 524.5C679.4 524.2 680.8 523.8 682.6 523.4C684.4 523.1 686.6 522.7 689.3 522.4C691.9 522.2 694.9 522 698.2 522.2C699.9 522.3 701.6 522.5 703.4 523C705.2 523.4 707 524 708.8 525.2C709.6 525.8 710.4 526.5 711 527.5C711.6 528.5 711.8 529.7 711.7 530.8C711.6 532 711.2 533.1 710.7 534.1C710.1 535.1 709.4 536 708.6 536.8C707.1 538.5 705.3 539.9 703.4 541.2C701.4 542.467 699.333 543.6 697.2 544.6C692.9 546.7 688.2 548.3 683.3 549.6C678.4 550.8 673.5 551.6 668.7 551.8C666.3 551.933 663.933 551.9 661.6 551.7C659.3 551.4 657.1 551.1 654.9 550.3C653.833 549.967 652.833 549.5 651.9 548.9C650.9 548.3 650 547.5 649.4 546.5C648.8 545.6 648.4 544.4 648.5 543.3C648.5 542.1 648.8 541.1 649.3 540.1C650.3 538.3 651.6 536.9 653 535.7C654.4 534.4 655.8 533.4 657.2 532.5C660 530.8 662.8 529.5 665.2 528.5C667.6 527.5 669.8 526.8 671.5 526.2C673.3 525.7 674.7 525.4 675.6 525.2C676.6 525 677.1 524.933 677.1 525Z" fill="#455A64"/>
<path d="M687.2 536.5C687.9 539.4 686.2 542.3 683.3 543.1C680.4 543.8 677.5 542 676.8 539.2C676.1 536.3 677.8 533.4 680.7 532.6C683.5 531.9 686.5 533.7 687.2 536.5Z" fill="#455A64"/>
<path d="M796.4 444.7C796.4 444.7 796.2 444.6 795.8 444.4C795.4 444.2 794.833 443.933 794.1 443.6C792.5 442.733 790.267 441.567 787.4 440.1C781.6 437 773.2 432.6 762.8 427.1L763 427.2C743.4 434.6 716.8 444.8 687.2 456.1L686.5 456.4L686.7 455.7C687.4 453 688.2 450.2 689 447.3C694.3 428.2 699.3 410.1 703.7 394.2L703.8 394.1V394C721.1 381.1 735.6 370.2 745.9 362.5C751 358.7 755 355.7 757.8 353.6C759.2 352.6 760.267 351.833 761 351.3C761.333 351.033 761.6 350.833 761.8 350.7C762 350.567 762.1 350.5 762.1 350.5C762.1 350.5 762.033 350.6 761.9 350.8C761.7 350.933 761.433 351.133 761.1 351.4C760.367 351.933 759.333 352.733 758 353.8C755.2 355.9 751.2 359 746.1 362.8C735.9 370.6 721.4 381.5 704.2 394.5L704.4 394.3C700 410.3 695 428.4 689.7 447.5C688.9 450.4 688.1 453.2 687.4 455.9L686.9 455.5C716.5 444.2 743.2 434.1 762.8 426.7L762.9 426.6L763 426.7C773.4 432.2 781.7 436.7 787.5 439.8C790.367 441.4 792.6 442.6 794.2 443.4C794.933 443.8 795.5 444.133 795.9 444.4C796.233 444.6 796.4 444.7 796.4 444.7Z" fill="#036CB6"/>
<path d="M696.9 455.2L692.4 456.5L690.9 461L688.2 457.1H683.5L686.4 453.4L684.9 448.9L689.4 450.5L693.2 447.7L693.1 452.4L696.9 455.2Z" fill="#036CB6"/>
<path d="M710 392.7L707.1 393.7L706.4 396.7L704.5 394.3L701.4 394.5L703.1 391.9L702 389.1L705 389.9L707.3 388L707.4 391.1L710 392.7Z" fill="#036CB6"/>
<path d="M767.4 348.6L765.3 351.8L766.7 355.3L763.1 354.2L760.2 356.6L760.1 352.9L756.9 350.9L760.4 349.6L761.3 345.9L763.7 348.9L767.4 348.6Z" fill="#036CB6"/>
<path d="M801 440.8L798.9 443.9L800.3 447.4L796.7 446.4L793.8 448.8L793.7 445L790.5 443L794 441.7L795 438.1L797.3 441L801 440.8Z" fill="#036CB6"/>
<path d="M765.8 425.3L764.4 427.3L765.3 429.6L763 428.9L761.2 430.4L761.1 428L759 426.8L761.3 425.9L761.9 423.6L763.4 425.5L765.8 425.3Z" fill="#036CB6"/>
<path d="M570.5 101.3C570.5 122.5 553.3 139.7 532.1 139.7C510.9 139.7 493.7 122.5 493.7 101.3C493.7 80.0999 510.9 62.8999 532.1 62.8999C553.3 62.8999 570.5 80.0999 570.5 101.3Z" fill="#036CB6"/>
<g opacity="0.3">
<path d="M527.1 113.3C527.1 116.7 524.3 119.5 520.8 119.5C517.4 119.5 514.6 116.7 514.6 113.3C514.6 109.8 517.4 107 520.8 107C524.3 107 527.1 109.8 527.1 113.3Z" fill="white"/>
</g>
<g opacity="0.3">
<path d="M518.2 95.1998C518.2 97.1998 516.6 98.8998 514.6 98.8998C512.5 98.8998 510.9 97.1998 510.9 95.1998C510.9 93.1998 512.5 91.5999 514.6 91.5999C516.6 91.5999 518.2 93.1998 518.2 95.1998Z" fill="white"/>
</g>
<path d="M494.8 110.6C495 111.3 462 143 470.5 149.7C479 156.5 514.8 139.2 545.4 114.5C575.9 89.8999 603.8 59.8999 596.1 51.9999C588.5 43.9999 550.4 67.4999 550.4 67.4999L554.9 70.3999C554.9 70.3999 578 55.5999 585.3 61.3999C592.6 67.0999 571.8 89.5999 542.4 111C513.1 132.4 484.7 147.5 480.3 141.6C475.9 135.7 496.7 116.1 496.7 116.1L494.8 110.6Z" fill="#036CB6"/>
<g opacity="0.3">
<path d="M494.8 110.6C495 111.3 462 143 470.5 149.7C479 156.5 514.8 139.2 545.4 114.5C575.9 89.8999 603.8 59.8999 596.1 51.9999C588.5 43.9999 550.4 67.4999 550.4 67.4999L554.9 70.3999C554.9 70.3999 578 55.5999 585.3 61.3999C592.6 67.0999 571.8 89.5999 542.4 111C513.1 132.4 484.7 147.5 480.3 141.6C475.9 135.7 496.7 116.1 496.7 116.1L494.8 110.6Z" fill="black"/>
</g>
<g opacity="0.3">
<path d="M510.9 74.1998C511.2 74.5998 508.6 76.7999 505.7 81.2999C502.7 85.5999 499.6 92.4999 499.5 100.6C499.3 108.6 502.1 115.6 504.9 120.1C507.7 124.6 510.2 127 509.9 127.3C509.7 127.6 506.6 125.8 503.2 121.3C501.5 119 499.8 116.1 498.5 112.5C497.2 109 496.4 104.9 496.5 100.5C496.6 96.0999 497.6 91.9999 499 88.5999C500.4 85.0999 502.2 82.1999 504 79.9999C507.6 75.5999 510.7 73.9998 510.9 74.1998Z" fill="white"/>
</g>
<path d="M590.2 135.1C590.4 122.8 600.7 113.1 613 113.4C625.3 113.7 635 123.9 634.7 136.2C634.4 148.5 624.2 158.3 611.9 158C599.6 157.7 589.9 147.5 590.2 135.1Z" fill="#036CB6"/>
<g opacity="0.4">
<path d="M619.7 127.1C619.8 125.1 621.4 123.5 623.4 123.6C625.4 123.6 627 125.3 627 127.3C626.9 129.3 625.3 130.9 623.3 130.9C621.3 130.8 619.7 129.1 619.7 127.1Z" fill="black"/>
</g>
<g opacity="0.4">
<path d="M627 135.6C627 134.5 628 133.5 629.2 133.6C630.3 133.6 631.2 134.6 631.2 135.7C631.2 136.9 630.2 137.8 629.1 137.8C627.9 137.8 627 136.8 627 135.6Z" fill="black"/>
</g>
<g opacity="0.4">
<path d="M624.1 142.1C624.6 142.1 624.9 142.5 624.9 142.9C624.9 143.4 624.5 143.7 624.1 143.7C623.7 143.7 623.3 143.3 623.4 142.9C623.4 142.5 623.7 142.1 624.1 142.1Z" fill="black"/>
</g>
<path d="M682.2 301.5C682 301.5 681.9 273.3 681.9 238.4C681.9 203.6 682 175.4 682.2 175.4C682.4 175.4 682.6 203.6 682.6 238.4C682.6 273.3 682.4 301.5 682.2 301.5Z" fill="#263238"/>
<path d="M686 176.5C685.8 176.5 683.9 173.3 681.7 169.1H682.3C682.3 169.167 682.3 169.233 682.3 169.3C680.4 173.7 678.8 177.2 678.6 177.1C678.4 177 679.8 173.4 681.6 169C681.667 168.933 681.7 168.867 681.7 168.8L682 168.2L682.3 168.8C684.5 173 686.2 176.4 686 176.5Z" fill="#263238"/>
<path d="M681.5 160.5C681.4 160.6 680.4 159.9 679.6 158.7C678.7 157.4 678.5 156.2 678.7 156.2C678.9 156.1 679.4 157.2 680.1 158.3C680.9 159.5 681.7 160.3 681.5 160.5Z" fill="#263238"/>
<path d="M679.6 164.1C679.4 164 680.2 162.1 681.2 159.6C682.1 157.2 682.8 155.2 683 155.2C683.2 155.3 682.8 157.4 681.8 159.9C680.8 162.3 679.7 164.2 679.6 164.1Z" fill="#263238"/>
<path d="M673.2 192C673 191.9 674 190.3 674.4 188.1C674.7 185.9 674.2 184.1 674.4 184.1C674.6 184 675.4 185.8 675 188.2C674.7 190.6 673.3 192.1 673.2 192Z" fill="#263238"/>
<path d="M674.4 186.7C674.5 186.7 674.3 187.3 673.5 187.5C673.1 187.5 672.6 187.5 672.1 187.2C671.6 186.9 671.3 186.3 671.2 185.7C671.2 185.1 671.5 184.4 671.9 184.1C672.4 183.8 672.9 183.7 673.3 183.7C674.1 183.8 674.4 184.3 674.3 184.4C674.3 184.5 673.9 184.2 673.3 184.2C672.7 184.2 671.8 184.7 671.9 185.7C671.9 186.6 672.8 187 673.4 187C674 187 674.4 186.6 674.4 186.7Z" fill="#263238"/>
<path d="M780.4 292.5C780.4 292.7 756.3 292.9 726.5 292.9C696.7 292.9 672.5 292.7 672.5 292.5C672.5 292.4 696.7 292.2 726.5 292.2C756.3 292.2 780.4 292.4 780.4 292.5Z" fill="#263238"/>
<path d="M781.5 292.4C781.5 292.6 779.5 291.9 777.1 291C774.7 290 772.8 289.1 772.9 289C773 288.8 774.9 289.4 777.3 290.4C779.7 291.3 781.6 292.2 781.5 292.4Z" fill="#263238"/>
<path d="M782.7 292.8C782.8 293 781.2 293.7 779.1 294.4C777.1 295.1 775.4 295.6 775.3 295.4C775.3 295.2 776.9 294.5 778.9 293.8C780.9 293.1 782.6 292.6 782.7 292.8Z" fill="#263238"/>
<path d="M677.2 296C677.2 295.9 678.1 296.5 678.6 298.2C678.8 299 678.8 300.1 678.3 301.1C678.1 301.7 677.8 302.2 677.3 302.6C676.7 303 675.8 303.1 675.2 302.7C674 301.9 673.7 300.5 673.7 299.4C673.7 298.3 674.2 297.2 674.9 296.7C675.5 296.1 676.3 296 676.8 296.1C677.2 296.1 677.5 296.3 677.4 296.3C677.4 296.4 677.2 296.3 676.8 296.3C676.3 296.4 675.7 296.6 675.2 297.1C674.6 297.5 674.3 298.4 674.3 299.4C674.3 300.3 674.7 301.5 675.6 302.1C676 302.4 676.5 302.3 676.9 302.1C677.3 301.8 677.6 301.3 677.8 300.9C678.2 300 678.2 299 678.1 298.3C677.8 296.8 677.1 296 677.2 296Z" fill="#263238"/>
<path d="M765 297.4C765 297.4 765.4 297.2 765.9 297.6C766.2 297.8 766.4 298.2 766.4 298.7C766.4 299.1 766.1 299.6 765.8 300.1C765 300.9 763.6 301.2 763 302.2C762.7 302.7 762.7 303.4 763 304C763.3 304.5 764 304.9 764.6 304.8C765.3 304.8 765.8 304.3 766 303.6C766.3 303 766.1 302.4 765.7 301.9C765.3 301.4 764.8 301.1 764.3 300.8C763.7 300.5 763.1 300.1 763 299.5C762.8 298.9 763 298.3 763.3 298C763.6 297.6 763.9 297.4 764.2 297.3C764.8 297.1 765.1 297.1 765.2 297.2C765.2 297.2 764.8 297.3 764.3 297.5C764.1 297.7 763.8 297.9 763.6 298.2C763.4 298.5 763.3 298.9 763.4 299.3C763.6 300.2 765.2 300.3 766.2 301.5C766.7 302.1 767 303 766.7 303.9C766.4 304.7 765.6 305.4 764.7 305.5C763.8 305.6 762.8 305.1 762.4 304.3C762 303.5 762 302.6 762.4 301.9C762.9 301.2 763.5 300.9 764 300.6C764.6 300.3 765.1 300 765.4 299.7C765.8 299.4 766 299 766 298.6C766.1 298.3 765.9 298 765.8 297.8C765.4 297.4 765 297.4 765 297.4Z" fill="#263238"/>
<path d="M764.7 294.9C764.5 294.9 764.4 293.5 764.4 291.9C764.4 290.2 764.5 288.9 764.7 288.9C764.9 288.9 765.1 290.2 765.1 291.9C765.1 293.5 764.9 294.9 764.7 294.9Z" fill="#263238"/>
<path d="M793.6 292.7C793.6 292.8 792.9 292.9 791.7 292.9C791.033 292.967 790.367 293.033 789.7 293.1C789.6 293.1 789.5 293.1 789.3 293C789 292.9 789 292.5 789 292.4C789.1 292 789.3 291.9 789.4 291.7C789.733 291.433 790.033 291.133 790.3 290.8C791 290.2 791.4 289.6 791.4 288.9C791.4 288.3 791 287.8 790.6 287.7C790.1 287.6 789.7 287.8 789.4 287.9C789.133 288.033 788.967 288.1 788.9 288.1C788.9 288.033 789.033 287.9 789.3 287.7C789.5 287.5 790 287.2 790.7 287.2C791.4 287.3 792 288 792 288.9C792 289.8 791.5 290.7 790.8 291.3C790.533 291.567 790.233 291.867 789.9 292.2C789.8 292.3 789.6 292.5 789.6 292.5C789.7 292.5 789.5 292.5 789.5 292.5C789.5 292.5 789.533 292.5 789.6 292.5V292.4C789.6 292.4 789.633 292.4 789.7 292.4C790.367 292.467 791.033 292.5 791.7 292.5C792.9 292.5 793.6 292.6 793.6 292.7Z" fill="#263238"/>
<path d="M696.6 292.5C696.6 292.5 696.6 291.9 696.5 290.7C696.5 289.433 696.467 287.767 696.4 285.7C696.4 281.5 696.3 275.7 696.3 269.1L696.6 269.4C694.6 269.4 692.5 269.4 690.3 269.4C691 268.8 690.5 269.3 690.7 269.1V269.2V269.3V269.5V270V270.9C690.7 271.5 690.7 272.067 690.7 272.6C690.7 273.8 690.7 274.967 690.7 276.1C690.633 278.3 690.6 280.4 690.6 282.4C690.6 286.4 690.6 289.8 690.5 292.5L690.3 292.3C692.233 292.367 693.767 292.4 694.9 292.4C696 292.5 696.6 292.5 696.6 292.5C696.6 292.567 696.067 292.6 695 292.6C693.8 292.667 692.233 292.7 690.3 292.7H690.1V292.5C690.1 289.8 690.1 286.4 690 282.4C690 280.4 690 278.3 690 276.1C690 274.967 690 273.8 690 272.6C690 272.067 690 271.5 690 270.9V270V269.5V269.3V269.2V269.1C690.1 269 689.7 269.4 690.3 268.8C692.5 268.8 694.6 268.8 696.6 268.8H696.9V269.1C696.9 275.9 696.9 281.8 696.8 286C696.733 288 696.7 289.6 696.7 290.8C696.7 292 696.6 292.6 696.6 292.5Z" fill="#263238"/>
<path d="M756.3 292.5C756.3 292.5 756.267 292.267 756.2 291.8C756.2 291.333 756.2 290.7 756.2 289.9C756.2 288.1 756.1 285.6 756.1 282.6C756 276.5 756 268 756 258.4L756.3 258.7C754.3 258.7 752.2 258.7 750 258.7C750.7 258 750.2 258.5 750.4 258.4V258.5V258.7V259V259.7V261.1C750.4 261.967 750.4 262.833 750.4 263.7C750.333 265.433 750.3 267.133 750.3 268.8C750.3 272.133 750.3 275.267 750.3 278.2C750.3 284 750.2 288.9 750.2 292.5L750 292.4C751.933 292.4 753.466 292.433 754.6 292.5C755.066 292.5 755.467 292.5 755.8 292.5C756.133 292.5 756.3 292.5 756.3 292.5C756.3 292.567 755.767 292.6 754.7 292.6C753.567 292.667 752 292.7 750 292.7H749.8V292.5C749.8 288.9 749.8 284 749.7 278.2C749.7 275.267 749.7 272.133 749.7 268.8C749.7 267.133 749.7 265.433 749.7 263.7C749.7 262.833 749.7 261.967 749.7 261.1V259.7V259V258.7V258.5V258.4C749.8 258.2 749.3 258.7 750 258C752.2 258 754.3 258 756.3 258H756.6V258.4C756.6 268.1 756.5 276.7 756.5 282.8C756.4 285.8 756.4 288.2 756.4 290C756.4 290.8 756.367 291.433 756.3 291.9C756.3 292.367 756.3 292.567 756.3 292.5Z" fill="#263238"/>
<path d="M711.7 292.5C711.7 292.5 711.667 292.233 711.6 291.7C711.6 291.033 711.6 290.2 711.6 289.2C711.6 287 711.5 283.9 711.5 280.1C711.5 272.5 711.4 261.9 711.4 250L711.7 250.3C709.7 250.3 707.6 250.3 705.4 250.3C706.1 249.6 705.6 250.1 705.8 250V250.1V250.2V250.4V250.8V251.7C705.8 252.233 705.8 252.8 705.8 253.4C705.8 254.533 705.8 255.633 705.8 256.7C705.8 258.967 705.767 261.133 705.7 263.2C705.7 267.5 705.7 271.4 705.7 275.1C705.7 282.4 705.6 288.4 705.6 292.5L705.4 292.4C707.4 292.4 708.933 292.433 710 292.5C710.533 292.5 710.967 292.5 711.3 292.5C711.567 292.5 711.7 292.5 711.7 292.5C711.7 292.567 711.567 292.6 711.3 292.6C710.967 292.6 710.567 292.6 710.1 292.6C708.967 292.6 707.4 292.633 705.4 292.7H705.3V292.5C705.2 288.4 705.2 282.4 705.1 275.1C705.1 271.4 705.1 267.5 705.1 263.2C705.1 261.133 705.1 258.967 705.1 256.7C705.1 255.633 705.1 254.533 705.1 253.4C705.1 252.8 705.1 252.233 705.1 251.7V250.8V250.4V250.2V250.1V250C705.2 249.8 704.7 250.3 705.4 249.6C707.6 249.6 709.7 249.6 711.7 249.6H712V250C712 262 711.9 272.7 711.9 280.4C711.8 284.1 711.8 287.2 711.8 289.3C711.8 290.3 711.767 291.1 711.7 291.7C711.7 292.3 711.7 292.567 711.7 292.5Z" fill="#263238"/>
<path d="M726.5 292.4C726.5 292.4 726.467 292.3 726.4 292.1C726.4 291.833 726.4 291.467 726.4 291C726.4 290.133 726.4 288.867 726.4 287.2C726.3 283.9 726.3 279.1 726.3 273.2C726.2 261.3 726.2 244.9 726.1 226.4L726.5 226.8C724.5 226.8 722.3 226.8 720.2 226.8C720.9 226.1 720.4 226.6 720.5 226.5V226.6V226.8V227.1V227.8V229.2C720.5 230.133 720.5 231.033 720.5 231.9C720.5 233.7 720.5 235.5 720.5 237.3C720.5 240.833 720.5 244.267 720.5 247.6C720.5 254.3 720.5 260.6 720.5 266.3C720.4 277.7 720.4 286.8 720.3 292.4L720.2 292.3C722.2 292.3 723.733 292.333 724.8 292.4C725.333 292.4 725.733 292.4 726 292.4C726.267 292.4 726.433 292.4 726.5 292.4C726.5 292.4 726.367 292.4 726.1 292.4C725.767 292.4 725.367 292.433 724.9 292.5C723.767 292.5 722.2 292.5 720.2 292.5H720.1V292.4C720 286.8 720 277.7 719.9 266.3C719.9 260.6 719.9 254.3 719.9 247.6C719.9 244.267 719.9 240.833 719.9 237.3C719.9 235.5 719.9 233.7 719.9 231.9C719.9 231.033 719.9 230.133 719.9 229.2V227.8V227.1V226.8V226.6V226.5C720 226.3 719.5 226.8 720.2 226.1C722.3 226.1 724.5 226.1 726.5 226.1H726.8V226.4C726.7 245 726.7 261.5 726.7 273.4C726.6 279.3 726.6 284.1 726.6 287.4C726.533 289 726.5 290.233 726.5 291.1C726.5 291.5 726.5 291.833 726.5 292.1C726.5 292.3 726.5 292.4 726.5 292.4Z" fill="#263238"/>
<path d="M741.6 292.4C741.6 292.4 741.6 292.2 741.6 291.8C741.6 291.4 741.567 290.833 741.5 290.1C741.5 288.567 741.5 286.433 741.5 283.7C741.5 278 741.4 269.9 741.4 259.9C741.4 239.8 741.3 212 741.3 181L741.6 181.4C739.6 181.4 737.5 181.4 735.3 181.4C736 180.7 735.5 181.2 735.7 181.1V181.2V181.3V181.7V182.3V183.5V185.9C735.7 187.5 735.7 189.1 735.7 190.7C735.7 193.9 735.7 197.067 735.7 200.2C735.633 206.467 735.6 212.533 735.6 218.4C735.6 230.1 735.6 241 735.6 250.8C735.5 270.2 735.5 284.9 735.4 292.4L735.3 292.3C737.367 292.3 738.933 292.333 740 292.4C740.533 292.4 740.933 292.4 741.2 292.4C740.933 292.4 740.567 292.433 740.1 292.5C739.033 292.5 737.433 292.5 735.3 292.5H735.2V292.4C735.2 284.9 735.1 270.2 735.1 250.8C735 241 735 230.1 735 218.4C735 212.533 735 206.467 735 200.2C735 197.067 735 193.9 735 190.7C735 189.1 735 187.5 735 185.9V183.5V182.3V181.7V181.3V181.2V181.1C735.1 180.9 734.6 181.4 735.3 180.7C737.5 180.7 739.6 180.7 741.6 180.7H741.9V181C741.9 212.1 741.8 240 741.8 260.1C741.7 270.1 741.7 278.2 741.7 283.8C741.7 286.6 741.667 288.733 741.6 290.2C741.6 290.933 741.6 291.5 741.6 291.9C741.6 292.233 741.6 292.4 741.6 292.4Z" fill="#263238"/>
<path fill-rule="evenodd" clip-rule="evenodd" d="M232.2 383.8L75.5 392.7L70.2 299L232.2 383.8ZM98.6 375.1L163.7 371.4L96.3999 335.5L98.6 375.1Z" fill="#036CB6"/>
<path d="M85.8001 307.2C86.0001 307.3 84.9001 310 83.3001 313.1C81.6001 316.2 80.1001 318.6 79.8001 318.4C79.6001 318.3 80.7001 315.6 82.3001 312.5C84.0001 309.4 85.5001 307 85.8001 307.2Z" fill="#263238"/>
<path d="M109.8 319.6C110.1 319.7 108.9 322.3 107.3 325.3C105.7 328.3 104.2 330.7 103.9 330.5C103.6 330.4 104.7 327.8 106.4 324.8C108 321.8 109.5 319.4 109.8 319.6Z" fill="#263238"/>
<path d="M133.8 332C134.1 332.2 132.7 334.6 130.8 337.4C128.9 340.3 127.1 342.4 126.8 342.2C126.6 342.1 128 339.6 129.9 336.8C131.8 334 133.6 331.8 133.8 332Z" fill="#263238"/>
<path d="M157.5 345C157.7 345.2 156.4 347.6 154.4 350.4C152.5 353.2 150.7 355.4 150.5 355.2C150.2 355 151.6 352.6 153.5 349.8C155.5 347 157.2 344.8 157.5 345Z" fill="#263238"/>
<path d="M182.1 357.7C182.4 357.8 181.2 360.4 179.4 363.4C177.6 366.5 175.9 368.8 175.7 368.6C175.4 368.5 176.7 365.9 178.4 362.9C180.2 359.8 181.9 357.5 182.1 357.7Z" fill="#263238"/>
<path d="M207.8 371C208 371.2 206.9 373.6 205.3 376.5C203.7 379.4 202.2 381.6 201.9 381.5C201.7 381.3 202.8 378.8 204.4 376C206 373.1 207.5 370.9 207.8 371Z" fill="#263238"/>
<path d="M93.2999 311.1C93.4999 311.3 93.0999 312.6 92.2999 314.2C91.3999 315.7 90.5999 316.8 90.2999 316.7C89.9999 316.6 90.4999 315.2 91.2999 313.6C92.0999 312.1 92.9999 311 93.2999 311.1Z" fill="#263238"/>
<path d="M101.1 315C101.4 315.2 100.9 316.6 100.1 318.1C99.3001 319.6 98.4001 320.8 98.2001 320.6C97.9001 320.5 98.4001 319.1 99.2001 317.6C100 316 100.9 314.9 101.1 315Z" fill="#263238"/>
<path d="M118.7 324.3C118.9 324.5 118.5 325.8 117.7 327.4C116.8 328.9 116 330.1 115.7 329.9C115.4 329.8 115.9 328.4 116.7 326.8C117.5 325.3 118.4 324.2 118.7 324.3Z" fill="#263238"/>
<path d="M126.5 328.2C126.8 328.4 126.4 329.8 125.5 331.3C124.7 332.9 123.8 334 123.6 333.8C123.3 333.7 123.8 332.3 124.6 330.8C125.4 329.2 126.3 328.1 126.5 328.2Z" fill="#263238"/>
<path d="M142.4 337.1C142.7 337.3 142.2 338.6 141.4 340.2C140.6 341.7 139.7 342.9 139.4 342.7C139.2 342.6 139.6 341.2 140.4 339.6C141.3 338.1 142.1 337 142.4 337.1Z" fill="#263238"/>
<path d="M149.9 341.1C150.2 341.2 149.7 342.6 148.9 344.1C148.1 345.7 147.2 346.8 147 346.7C146.7 346.5 147.1 345.1 148 343.6C148.8 342.1 149.7 340.9 149.9 341.1Z" fill="#263238"/>
<path d="M166.1 349.5C166.4 349.6 166 351 165.1 352.6C164.3 354.1 163.5 355.2 163.2 355.1C162.9 354.9 163.4 353.6 164.2 352C165 350.5 165.9 349.3 166.1 349.5Z" fill="#263238"/>
<path d="M174.9 354.1C175.1 354.3 174.7 355.6 173.9 357.2C173 358.7 172.2 359.9 171.9 359.7C171.6 359.6 172.1 358.2 172.9 356.6C173.7 355.1 174.6 354 174.9 354.1Z" fill="#263238"/>
<path d="M190.5 362.4C190.8 362.5 190.4 363.9 189.5 365.4C188.7 367 187.8 368.1 187.6 368C187.3 367.8 187.8 366.4 188.6 364.9C189.4 363.3 190.3 362.2 190.5 362.4Z" fill="#263238"/>
<path d="M199.6 367C199.8 367.2 199.4 368.5 198.6 370.1C197.8 371.6 196.9 372.8 196.6 372.6C196.4 372.5 196.8 371.1 197.6 369.5C198.4 368 199.3 366.9 199.6 367Z" fill="#263238"/>
<path d="M338.2 168.7C338.2 168.7 338.2 168.567 338.2 168.3C338.2 168.1 338.2 167.767 338.2 167.3C338.133 166.433 338.1 165.167 338.1 163.5C338.1 160.2 338.1 155.3 338.1 149.1C338 136.7 338 119 337.9 97.8L338.2 98.1C317.6 98.1 293.3 98.1 267.3 98.1L267.6 97.8C267.6 123.8 267.6 148.1 267.6 168.7L267.3 168.4C288.5 168.4 306.2 168.5 318.6 168.5C324.8 168.6 329.7 168.6 333 168.6C334.667 168.6 335.967 168.6 336.9 168.6C337.3 168.667 337.6 168.7 337.8 168.7C338.067 168.7 338.2 168.7 338.2 168.7C338.2 168.7 338.1 168.7 337.9 168.7C337.633 168.7 337.3 168.7 336.9 168.7C336.033 168.7 334.8 168.7 333.2 168.7C329.8 168.8 325 168.8 318.8 168.8C306.3 168.9 288.6 168.9 267.3 169H267V168.7C267 148.1 267 123.8 267 97.8V97.5H267.3C293.3 97.5 317.6 97.5 338.2 97.5H338.5V97.8C338.4 119.1 338.4 136.8 338.3 149.3C338.3 155.4 338.3 160.3 338.3 163.6C338.233 165.267 338.2 166.533 338.2 167.4C338.2 167.8 338.2 168.133 338.2 168.4C338.2 168.6 338.2 168.7 338.2 168.7Z" fill="#036CB6"/>
<path d="M338.2 168.7C338.2 168.7 338.367 168.567 338.7 168.3C339.1 168.033 339.667 167.7 340.4 167.3C341.8 166.3 343.9 165 346.6 163.3C352.1 159.9 360 155 369.7 148.9L369.6 149.1C369.6 130.6 369.5 106.1 369.5 79.3L369.8 79.7C369.8 79.7 369.767 79.7 369.7 79.7C342.8 79.6 318.3 79.6 299.8 79.6L299.9 79.5C289.9 85.2 281.8 89.8 276.1 92.9C273.3 94.5 271.1 95.7 269.6 96.6C268.867 97 268.3 97.3 267.9 97.5C267.5 97.7 267.3 97.8 267.3 97.8C267.3 97.8 267.5 97.6667 267.9 97.4C268.3 97.2 268.833 96.8667 269.5 96.4C271 95.6 273.2 94.3 276 92.7C281.6 89.5 289.7 84.8 299.7 79.1H299.8C318.3 79 342.8 79 369.7 79C369.767 79 369.8 79 369.8 79H370.2V79.3C370.2 106.1 370.1 130.6 370.1 149.1V149.3L370 149.4C360.2 155.3 352.3 160.2 346.8 163.5C344.1 165.2 341.9 166.5 340.4 167.4C339.733 167.8 339.2 168.133 338.8 168.4C338.4 168.6 338.2 168.7 338.2 168.7Z" fill="#036CB6"/>
<path d="M369.8 79.2999C369.9 79.4999 362.9 83.6999 354.2 88.7999C345.4 93.9999 338.3 97.9999 338.2 97.7999C338.1 97.5999 345.1 93.3999 353.9 88.2999C362.6 83.1999 369.8 79.1999 369.8 79.2999Z" fill="#036CB6"/>
<path d="M270.7 165.8C270.8 165.9 270.1 166.5 269.2 167C268.2 167.6 267.4 167.9 267.3 167.7C267.2 167.5 267.9 167 268.8 166.4C269.8 165.9 270.6 165.6 270.7 165.8Z" fill="#036CB6"/>
<path d="M277.4 161.9C277.5 162.1 276.8 162.6 275.9 163.2C275 163.7 274.1 164 274 163.8C273.9 163.7 274.6 163.1 275.6 162.6C276.5 162 277.3 161.7 277.4 161.9Z" fill="#036CB6"/>
<path d="M284.1 158C284.2 158.2 283.5 158.8 282.6 159.3C281.7 159.8 280.9 160.1 280.8 160C280.7 159.8 281.3 159.3 282.3 158.7C283.2 158.2 284 157.9 284.1 158Z" fill="#036CB6"/>
<path d="M290.9 154.2C290.9 154.3 290.3 154.9 289.3 155.4C288.4 156 287.6 156.3 287.5 156.1C287.4 156 288.1 155.4 289 154.9C289.9 154.3 290.8 154 290.9 154.2Z" fill="#036CB6"/>
<path d="M297.6 150.3C297.7 150.5 297 151 296.1 151.6C295.1 152.1 294.3 152.4 294.2 152.3C294.1 152.1 294.8 151.5 295.7 151C296.7 150.5 297.5 150.2 297.6 150.3Z" fill="#036CB6"/>
<path d="M299.3 143.5C299.5 143.5 299.6 144.4 299.6 145.5C299.6 146.5 299.4 147.4 299.2 147.4C299.1 147.4 298.9 146.5 298.9 145.5C298.9 144.4 299.1 143.5 299.3 143.5Z" fill="#036CB6"/>
<path d="M299.3 135.8C299.5 135.8 299.7 136.6 299.7 137.7C299.7 138.8 299.5 139.7 299.3 139.7C299.1 139.7 299 138.8 299 137.7C299 136.6 299.2 135.8 299.3 135.8Z" fill="#036CB6"/>
<path d="M299.4 128C299.6 128 299.7 128.9 299.7 130C299.7 131 299.6 131.9 299.4 131.9C299.2 131.9 299 131 299 130C299.1 128.9 299.2 128 299.4 128Z" fill="#036CB6"/>
<path d="M299.5 120.3C299.6 120.3 299.8 121.1 299.8 122.2C299.8 123.3 299.6 124.1 299.4 124.1C299.2 124.1 299.1 123.3 299.1 122.2C299.1 121.1 299.3 120.3 299.5 120.3Z" fill="#036CB6"/>
<path d="M299.5 112.5C299.7 112.5 299.9 113.4 299.8 114.5C299.8 115.5 299.7 116.4 299.5 116.4C299.3 116.4 299.2 115.5 299.2 114.4C299.2 113.4 299.3 112.5 299.5 112.5Z" fill="#036CB6"/>
<path d="M299.6 104.8C299.8 104.8 299.9 105.6 299.9 106.7C299.9 107.8 299.7 108.6 299.6 108.6C299.4 108.6 299.2 107.8 299.2 106.7C299.2 105.6 299.4 104.8 299.6 104.8Z" fill="#036CB6"/>
<path d="M299.6 97C299.8 97 300 97.9 300 98.9C300 100 299.8 100.9 299.6 100.9C299.4 100.9 299.3 100 299.3 98.9C299.3 97.9 299.5 97 299.6 97Z" fill="#036CB6"/>
<path d="M299.7 89.2C299.9 89.2 300 90.1 300 91.2C300 92.3 299.9 93.1 299.7 93.1C299.5 93.1 299.3 92.3 299.4 91.2C299.4 90.1 299.5 89.2 299.7 89.2Z" fill="#036CB6"/>
<path d="M299.8 81.5C300 81.5 300.1 82.4 300.1 83.4C300.1 84.5 299.9 85.4 299.7 85.4C299.6 85.4 299.4 84.5 299.4 83.4C299.4 82.4 299.6 81.5 299.8 81.5Z" fill="#036CB6"/>
<path d="M366 149.2C366 149 366.8 148.9 367.9 148.9C369 148.9 369.8 149 369.8 149.2C369.8 149.3 369 149.5 367.9 149.5C366.8 149.5 366 149.3 366 149.2Z" fill="#036CB6"/>
<path d="M358.2 149.2C358.2 149 359.1 148.9 360.2 148.9C361.2 148.9 362.1 149 362.1 149.2C362.1 149.3 361.2 149.5 360.2 149.5C359.1 149.5 358.2 149.3 358.2 149.2Z" fill="#036CB6"/>
<path d="M350.5 149.2C350.5 149 351.3 148.9 352.4 148.9C353.5 148.9 354.3 149 354.3 149.2C354.3 149.3 353.5 149.5 352.4 149.5C351.3 149.5 350.5 149.3 350.5 149.2Z" fill="#036CB6"/>
<path d="M342.7 149.2C342.7 149 343.6 148.9 344.6 148.9C345.7 148.9 346.6 149 346.6 149.2C346.6 149.3 345.7 149.5 344.6 149.5C343.6 149.5 342.7 149.3 342.7 149.2Z" fill="#036CB6"/>
<path d="M335 149.2C335 149 335.8 148.9 336.9 148.9C338 148.9 338.8 149 338.8 149.2C338.8 149.3 338 149.5 336.9 149.5C335.8 149.5 335 149.3 335 149.2Z" fill="#036CB6"/>
<path d="M327.2 149.2C327.2 149 328.1 148.9 329.1 148.9C330.2 148.9 331.1 149 331.1 149.2C331.1 149.3 330.2 149.5 329.1 149.5C328.1 149.5 327.2 149.3 327.2 149.2Z" fill="#036CB6"/>
<path d="M319.4 149.2C319.4 149 320.3 148.9 321.4 148.9C322.5 148.9 323.3 149 323.3 149.2C323.3 149.3 322.5 149.5 321.4 149.5C320.3 149.5 319.4 149.3 319.4 149.2Z" fill="#036CB6"/>
<path d="M311.7 149.2C311.7 149 312.6 148.9 313.6 148.9C314.7 148.9 315.6 149 315.6 149.2C315.6 149.3 314.7 149.5 313.6 149.5C312.6 149.5 311.7 149.3 311.7 149.2Z" fill="#036CB6"/>
<path d="M303.9 149.2C303.9 149 304.8 148.9 305.9 148.9C306.9 148.9 307.8 149 307.8 149.2C307.8 149.3 306.9 149.5 305.9 149.5C304.8 149.5 303.9 149.3 303.9 149.2Z" fill="#036CB6"/>
<path d="M299.2 149.2C299.2 149 299.4 148.9 299.6 148.9C299.9 148.9 300.1 149 300.1 149.2C300.1 149.3 299.9 149.5 299.6 149.5C299.4 149.5 299.2 149.3 299.2 149.2Z" fill="#036CB6"/>
<path d="M378.4 125.5C378.4 125.5 379.1 125.7 380.2 125.5C381.3 125.2 382.9 124.5 383.9 122.7C384.8 120.9 384.9 118.3 383.7 115.9C383.4 115.4 382.9 114.9 382.3 114.8C381.7 114.7 381 114.9 380.5 115.3C379.4 116.1 378.8 117.6 378.2 119.1C377.6 120.7 377.3 122.3 377.2 123.9H376.6C376.5 118.7 376.5 114.2 376.5 111C376.5 109.533 376.5 108.3 376.5 107.3C376.5 106.4 376.5 105.9 376.6 105.9C376.6 105.9 376.7 106.4 376.7 107.3C376.767 108.3 376.833 109.533 376.9 111C377 114.2 377.1 118.7 377.2 123.8H376.6C376.7 122.2 377 120.5 377.6 118.8C377.867 118.067 378.2 117.333 378.6 116.6C378.9 115.9 379.4 115.3 380.1 114.8C380.7 114.3 381.6 114 382.4 114.2C383.3 114.3 383.9 115 384.2 115.6C385.5 118.2 385.4 121 384.3 122.9C383.2 124.8 381.4 125.6 380.2 125.7C379.7 125.8 379.2 125.7 378.9 125.7C378.567 125.633 378.4 125.567 378.4 125.5Z" fill="#036CB6"/>
<path d="M181.8 457.5C181.8 457.433 182.1 457.5 182.7 457.7C183.2 457.9 184 458.1 185 458.5C187.1 459.3 190 460.7 193.5 463C197 465.3 201.1 468.6 204.7 473.3C208.4 477.9 211.7 484.1 213.1 491.5C214.5 498.9 213.7 507.5 210 515.5C208.2 519.6 205.5 523.4 202.2 526.7C200.6 528.4 198.6 529.9 196.6 531.2C195.6 531.8 194.5 532.5 193.4 533C192.3 533.5 191.2 534.1 190 534.6C180.7 538.3 170 538.4 159.3 537.4C154 536.9 148.6 536.1 143.1 535.2C137.6 534.4 132 533.3 126.6 531.4C121.2 529.6 116 526.9 111.9 523.1C109.7 521.3 108 519.1 106.5 516.8C105.1 514.4 103.8 511.9 103 509.3C101.3 504.2 101 498.7 101.5 493.5C102 488.4 103.5 483.4 105.8 479C110.5 470.1 117.9 463.6 125.6 459.4C133.4 455.2 141.4 453 148.9 452C156.3 451.1 163.1 451.3 169 451.9C174.9 452.5 180 453.5 184 454.4C188.1 455.3 191.2 456.1 193.4 456.7C194.4 457.033 195.2 457.267 195.8 457.4C196.333 457.6 196.6 457.7 196.6 457.7C196.6 457.7 196.3 457.633 195.7 457.5C195.167 457.366 194.367 457.167 193.3 456.9C191.2 456.3 188.1 455.5 184 454.7C179.9 453.8 174.9 452.9 169 452.4C163.1 451.8 156.3 451.6 148.9 452.6C141.6 453.6 133.6 455.8 125.9 460C118.3 464.2 111 470.6 106.4 479.3C104.2 483.7 102.8 488.5 102.2 493.6C101.8 498.7 102.1 504 103.8 509.1C104.5 511.6 105.8 514 107.1 516.4C108.6 518.6 110.3 520.7 112.4 522.6C116.5 526.2 121.5 528.9 126.8 530.7C132.2 532.5 137.7 533.6 143.2 534.5C148.7 535.3 154.1 536.1 159.4 536.6C170 537.6 180.6 537.5 189.8 533.9C199 530.4 205.8 523.1 209.4 515.3C213 507.3 213.9 498.9 212.6 491.6C211.2 484.3 208 478.2 204.4 473.5C200.8 468.9 196.8 465.6 193.4 463.2C189.9 460.9 187 459.5 185 458.7C183.9 458.3 183.2 458 182.6 457.8C182.067 457.6 181.8 457.5 181.8 457.5Z" fill="#263238"/>
<path d="M128.4 509.1C128.4 509.2 127.9 509.3 126.8 509.3C125.8 509.4 124.2 509.5 122.4 509.6C121.933 509.6 121.433 509.6 120.9 509.6C120.4 509.6 119.9 509.7 119.2 509.6C118.9 509.5 118.5 509.2 118.3 508.9C118.2 508.6 118.1 508.2 118.1 507.9C118.033 507.3 118 506.7 118 506.1C117.8 503.6 117.7 500.9 117.5 498C117.4 495.1 117.2 492.4 117.1 489.9C117.2 488.6 117.4 487.4 118 486.3C118.6 485.3 119.5 484.6 120.4 484.2C122.3 483.5 123.9 483.7 124.9 483.7C126 483.9 126.5 484 126.5 484C126.5 484.1 126 484.1 124.9 484.1C123.9 484.1 122.3 484 120.6 484.8C119.8 485.1 119 485.7 118.6 486.7C118 487.6 117.9 488.7 117.9 489.9C117.9 492.3 118.2 495.1 118.3 498C118.4 500.8 118.6 503.5 118.7 506.1C118.8 507.2 118.6 508.7 119.4 508.9C119.8 509.1 120.4 509 120.9 509C121.367 509 121.867 509 122.4 509C124.2 509 125.8 509 126.8 509C127.9 509 128.4 509.1 128.4 509.1Z" fill="#263238"/>
<path d="M126.2 496C126.2 496.3 124.3 496.5 122 496.5C119.7 496.6 117.9 496.4 117.9 496.2C117.9 496 119.7 495.8 122 495.7C124.3 495.7 126.2 495.8 126.2 496Z" fill="#263238"/>
<path d="M147 492.3C147 492.6 144.2 492.5 140.7 492.6C137.2 492.7 134.4 492.9 134.4 492.7C134.3 492.5 137.1 492 140.7 491.8C144.2 491.7 147 492.1 147 492.3Z" fill="#263238"/>
<path d="M148.2 501.9C148.2 502.1 145.4 502.4 142 502.3C138.5 502.2 135.7 501.8 135.7 501.6C135.8 501.4 138.6 501.4 142 501.5C145.4 501.6 148.2 501.7 148.2 501.9Z" fill="#263238"/>
<path d="M181.9 507.6C181.8 507.6 181.9 506.8 181.8 505.2C181.7 503.6 181.5 501.3 180.6 498.6C180.1 497.3 179.6 495.7 178.3 494.8C177.6 494.4 176.8 494.5 176.1 495C175.4 495.5 174.9 496.2 174.4 497C172.7 500.5 172.4 504.9 172.4 509.5L171.6 509.4C171.9 506.5 171.8 503.4 171.5 500.2C171.4 499 171.3 497.7 171 496.5C170.7 495.4 170.2 494.3 169.3 493.6C168.4 493 167.3 493 166.4 493.6C165.5 494.1 164.9 495.1 164.6 496.1C164.2 497.1 164.1 498.2 164 499.3C163.867 500.366 163.767 501.4 163.7 502.4C163.633 504.4 163.633 506.3 163.7 508.1H163.1C163 503.6 162.8 499.9 162.7 497.2C162.7 496 162.667 495.033 162.6 494.3C162.6 493.566 162.633 493.2 162.7 493.2C162.7 493.2 162.733 493.566 162.8 494.3C162.867 495.033 162.967 496 163.1 497.2C163.2 499.9 163.5 503.6 163.7 508.1H163.1C163 506.3 163 504.4 163 502.3C163.067 501.3 163.167 500.266 163.3 499.2C163.4 498.1 163.5 497 163.9 495.9C164.2 494.7 164.9 493.6 166 492.9C166.5 492.6 167.2 492.3 167.9 492.3C168.6 492.4 169.2 492.6 169.8 493C170.9 493.8 171.5 495.1 171.8 496.3C172 497.6 172.2 498.9 172.3 500.1C172.6 503.4 172.6 506.5 172.4 509.5L171.6 509.4C171.7 504.9 171.9 500.3 173.8 496.7C174.3 495.8 174.9 495 175.7 494.5C176.6 493.9 177.8 493.8 178.6 494.3C180.2 495.4 180.6 497.1 181.1 498.5C181.9 501.3 182.1 503.6 182.1 505.2C182.1 506 182 506.6 182 507C181.933 507.4 181.9 507.6 181.9 507.6Z" fill="#263238"/>
<path d="M199.4 506.4C199.4 506.4 199.1 506.7 198.4 507C197.8 507.4 196.7 507.7 195.3 507.8C194 507.8 192.3 507.5 190.7 506.5C189.2 505.6 187.9 503.8 187.4 501.8C186.9 499.7 187.2 497.6 188.2 496C189.1 494.4 190.5 493.3 191.7 492.7C192.9 492.2 194 492 194.8 492C195.5 492 196 492.1 195.9 492.2C196 492.3 194.2 492 191.9 493.2C190.8 493.9 189.6 494.9 188.8 496.3C188 497.8 187.7 499.7 188.2 501.6C188.6 503.4 189.7 505 191.1 505.9C192.5 506.9 194 507.2 195.3 507.2C197.9 507.3 199.3 506.2 199.4 506.4Z" fill="#263238"/>
<path d="M204.1 483.7C204.1 483.9 200.4 483.6 195.2 485.2L193.9 485.7L194.9 484.7C196.5 483 198.5 481.1 199.8 478.6C200.9 476.6 201.3 474.3 200.9 472.5C200.6 471.5 200.1 470.8 199.3 470.8C198.5 470.7 197.7 471.1 197.1 471.4C195.7 472 194.8 472.9 194.3 473.6C193.8 474.2 193.5 474.7 193.5 474.6C193.4 474.6 193.6 474.1 194.1 473.4C194.5 472.7 195.4 471.7 196.8 470.9C197.5 470.5 198.3 470.1 199.4 470.1C199.9 470.1 200.5 470.4 200.8 470.8C201.2 471.2 201.4 471.7 201.6 472.3C202.1 474.4 201.7 476.8 200.5 479C199.1 481.6 197 483.5 195.3 485.2L195 484.6C197.6 483.8 200 483.5 201.6 483.5C203.2 483.5 204.1 483.6 204.1 483.7Z" fill="#263238"/>
<path d="M338 460L380.7 451.8L462.4 470.6L503.9 479.2L504.5 535.8L412 552.9L349.6 534.4L326.1 499.7L338 460Z" fill="#FFBE9D"/>
<path d="M307.8 465.7L348 456.2C348 456.2 376.4 544.1 446.6 540.3C503.8 537.2 503.9 479.2 503.9 479.2L545.7 486.6C545.7 486.6 563.2 592.8 544 667.3C528 729.2 513.8 814.2 513.8 814.2H236L307.8 465.7Z" fill="#036CB6"/>
<path d="M715.3 737.7C715.3 737.7 600.7 537 580.1 511.2C557.5 483 539.5 486.3 539.5 486.3L527.4 621.5L624.8 759.7L648 768.1L715.3 737.7Z" fill="#036CB6"/>
<path d="M312.6 464.6C312.6 464.6 247.4 469.8 224.1 576.5C213.5 624.7 200.2 681.3 196.3 719.3C193.5 746.9 210.5 775.5 238 779.1L272.6 785.5C291.5 789 309.9 777.1 314.4 758.3L326.1 710.1L295 699.7L302.2 555.9L312.6 464.6Z" fill="#036CB6"/>
<path d="M551 561.2C551.067 561.2 551.167 561.7 551.3 562.7C551.5 563.767 551.733 565.2 552 567C552.133 567.934 552.267 568.967 552.4 570.1C552.533 571.3 552.667 572.567 552.8 573.9C553.1 576.5 553.4 579.6 553.5 582.9C554 589.7 554 597.7 553.7 606.7C553.3 615.6 552.3 625.4 550.8 635.6C549.3 645.8 547.4 655.4 545.5 664.2C543.7 672.9 541.7 680.7 540.1 687.3C538.5 693.8 537.1 699.1 536.1 702.7C535.633 704.434 535.233 705.834 534.9 706.9C534.633 707.9 534.5 708.367 534.5 708.3C534.433 708.3 534.5 707.834 534.7 706.9C534.967 705.834 535.3 704.4 535.7 702.6C536.6 698.8 537.9 693.6 539.4 687.1C540.9 680.5 542.8 672.7 544.6 664C546.5 655.2 548.3 645.6 549.8 635.4C551.3 625.3 552.3 615.5 552.7 606.6C553.1 597.7 553.2 589.7 552.8 583C552.7 579.6 552.4 576.6 552.2 573.9C552.133 572.567 552.033 571.334 551.9 570.2C551.767 569.067 551.667 568.033 551.6 567.1C551.4 565.3 551.233 563.834 551.1 562.7C551.033 561.767 551 561.267 551 561.2Z" fill="#263238"/>
<path d="M329.1 715.3C329.1 715.3 329 715 328.8 714.4C328.533 713.8 328.233 712.967 327.9 711.9C327.567 710.7 327.167 709.3 326.7 707.7C326.1 706.1 325.8 704.1 324.3 702.5C322.9 701 320.7 699.8 318.3 698.9C315.9 697.9 313.2 697.2 310.2 696.6C304.3 695.4 297.5 694.7 290.1 694.5H289.6L289.7 694C291.4 682.5 293.4 669.4 295.6 655.6C299.3 631.5 302.8 609.6 305.3 593.7C306.6 585.8 307.6 579.5 308.4 574.9C308.733 572.767 309 571.067 309.2 569.8C309.333 569.333 309.433 568.9 309.5 568.5C309.567 568.233 309.6 568.1 309.6 568.1C309.6 568.1 309.6 568.233 309.6 568.5C309.533 568.9 309.467 569.367 309.4 569.9C309.267 571.167 309.067 572.867 308.8 575C308.1 579.5 307.2 585.9 306 593.8C303.6 609.7 300.3 631.6 296.6 655.8C294.4 669.6 292.4 682.6 290.6 694.1L290.1 693.6C297.6 693.8 304.4 694.6 310.4 695.8C313.3 696.5 316.1 697.2 318.6 698.2C321 699.2 323.2 700.5 324.8 702.2C325.5 703 326 704 326.3 704.9C326.567 705.9 326.833 706.8 327.1 707.6C327.5 709.2 327.867 710.6 328.2 711.8C328.467 712.867 328.7 713.733 328.9 714.4C329.033 715 329.1 715.3 329.1 715.3Z" fill="#263238"/>
<path d="M239.4 731.6C239.3 731.6 239.5 730.7 239.9 729C240.3 727.2 241.1 724.8 242.4 721.9C245 716.2 250 708.7 257.9 703C265.7 697.3 274.4 694.8 280.7 694.1C283.8 693.8 286.4 693.8 288.1 693.9C289.9 694 290.8 694.2 290.8 694.2C290.8 694.4 286.9 694 280.8 694.8C274.6 695.7 266.2 698.2 258.5 703.8C250.8 709.4 245.8 716.7 243.1 722.2C240.4 727.9 239.6 731.7 239.4 731.6Z" fill="#263238"/>
<path d="M254.5 678.5C254.5 678.4 255 678.4 256 678.3C257 678.3 258.5 678.4 260.3 678.5C263.9 678.9 268.9 679.9 274.1 682C279.2 684.1 283.5 686.9 286.3 689.2C287.7 690.3 288.8 691.3 289.4 692.1C290.1 692.8 290.5 693.2 290.5 693.3C290.3 693.4 288.7 691.9 285.8 689.8C282.9 687.7 278.7 685 273.7 683C268.6 680.9 263.8 679.8 260.2 679.3C256.7 678.7 254.5 678.7 254.5 678.5Z" fill="#263238"/>
<path d="M321.9 540.3C321.8 540.3 321.7 539.3 321.7 537.5C321.7 535.6 321.6 533 321.4 529.7C320.9 523.2 319.7 514.2 317 504.6C314.3 495 310.7 486.7 307.7 480.9C306.1 478 304.9 475.7 303.9 474.1C303 472.5 302.5 471.6 302.6 471.6C302.6 471.5 303.2 472.4 304.3 473.9C305.3 475.4 306.7 477.7 308.3 480.5C311.5 486.3 315.3 494.6 318 504.3C320.7 514 321.9 523.1 322.1 529.7C322.2 533 322.2 535.6 322.1 537.5C322 539.3 321.9 540.3 321.9 540.3Z" fill="#263238"/>
<g opacity="0.3">
<path d="M548 650.8C564.6 622.7 565 586.1 550.5 556.8C554.8 588 554.5 620 547.5 650.7" fill="black"/>
</g>
<g opacity="0.3">
<path d="M400.3 682.6C387.6 686.3 370.2 687.2 357.9 682.6C367.5 696.2 386.1 701.2 402.1 696.7C418.2 692.3 433.1 676.2 434.3 659.5C426.5 670.1 412.9 678.9 400.2 682.6H400.3Z" fill="black"/>
</g>
<path d="M446.6 637.2C446.6 637.2 446.5 637.567 446.3 638.3C446.1 639 445.8 640.1 445.2 641.5C444.2 644.2 442.5 648 439.8 652.4C437.1 656.9 433.4 661.8 428.4 666.6C423.5 671.4 417.3 675.9 410.2 679.3C403 682.7 395.6 684.7 388.8 685.6C382 686.5 375.8 686.3 370.7 685.6C365.5 685 361.5 683.9 358.7 683C357.3 682.6 356.3 682.1 355.6 681.9C354.867 681.634 354.5 681.467 354.5 681.4C354.6 681.3 356.1 681.8 358.8 682.6C361.6 683.4 365.7 684.3 370.8 684.9C380.9 686.1 395.6 685.2 409.7 678.4C423.9 671.6 433.8 660.7 439.2 652.1C441.9 647.7 443.7 644 444.8 641.3C446 638.7 446.5 637.2 446.6 637.2Z" fill="#263238"/>
<path d="M306.1 777.2C306.167 777.267 306 777.467 305.6 777.8C305.3 778.1 304.8 778.6 304 779.1C302.6 780.3 300.2 781.7 297.1 782.8C294 783.9 290.1 784.6 285.8 784.8C281.4 785.1 276.6 784.8 271.7 784.3C261.7 783.5 252.8 782 246.4 780.9C243.1 780.3 240.5 779.8 238.7 779.4C237 779.1 236 778.8 236 778.7C236 778.7 237 778.8 238.8 779C240.8 779.333 243.367 779.7 246.5 780.1C252.9 781.1 261.8 782.4 271.8 783.3C276.7 783.7 281.4 784 285.7 783.9C290 783.7 293.8 783.1 296.9 782.1C303.1 780.1 306 777 306.1 777.2Z" fill="#263238"/>
<path d="M532 251L540.2 243C551.2 247.7 556.2 260.4 558.1 272.2C559.9 284 559.7 296.4 564.7 307.3C568.5 315.6 575.5 323.4 574.7 332.5C573.9 341.2 566 348.2 566 357C565.9 365.4 573 371.9 577 379.2C585.3 394.1 590.7 455.1 586.3 471.6C550 468.4 485.6 464.6 449.3 456.2C458.9 393.6 499.2 305.2 532 251Z" fill="#263238"/>
<path d="M548.3 306.8C550.8 264.3 519.9 225.3 476.8 220.2C431 214.7 390.6 247.5 386.8 292L376 471.9C375.8 475.4 376.8 478.8 378.8 481.7C389.4 497.1 408.5 509.2 425.6 511.6C442.1 513.9 458.9 509.6 473 501.8C477.7 499.1 480.7 494.1 480.8 488.6L481.5 448.3C481.5 448.2 481.6 448.1 481.8 448.1C484.3 448.3 490.6 448.4 493.1 447.8C503.7 445.2 530.8 434.7 540 394.9C543 381.7 546 344.2 548.3 306.8Z" fill="#FFBE9D"/>
<path d="M489.1 365.7C489.1 365.3 493.6 364.8 500.8 364.4C502.6 364.4 504.3 364.1 504.7 362.9C505.2 361.7 504.6 359.7 503.8 357.6C502.4 353.133 500.933 348.467 499.4 343.6C493.2 323.8 488.8 307.5 489.6 307.3C490.4 307.1 496.1 322.9 502.3 342.8C503.767 347.667 505.2 352.333 506.6 356.8C507.1 358.9 508.1 361.2 507 363.9C506.5 365.1 505.1 366 503.9 366.2C502.7 366.5 501.7 366.5 500.8 366.5C493.6 366.3 489.1 366.1 489.1 365.7Z" fill="#263238"/>
<path d="M536.5 321.9C535.7 322.8 531 318.8 524.2 318.6C517.5 318.3 512.4 321.9 511.7 321C511.4 320.6 512.2 319 514.4 317.4C516.5 315.7 520.2 314.2 524.4 314.3C528.6 314.5 532.2 316.3 534.2 318.1C536.2 319.9 536.9 321.5 536.5 321.9Z" fill="#263238"/>
<path d="M467.8 323.6C466.9 324.5 462 320 454.6 319.4C447.2 318.6 441.5 322.1 440.7 321.1C440.4 320.7 441.4 319.1 443.9 317.5C446.4 315.9 450.5 314.5 455.1 314.9C459.7 315.4 463.4 317.5 465.5 319.5C467.6 321.5 468.3 323.2 467.8 323.6Z" fill="#263238"/>
<path d="M481.5 448.1C481.5 448.1 453.9 448.4 421 425.7C421 425.7 429.5 462.1 481.3 460.9L481.5 448.1Z" fill="#EB996E"/>
<path d="M467.9 369C469.1 369 468.6 376.6 474.8 382.5C481.1 388.3 489.3 388 489.3 389.1C489.4 389.6 487.4 390.4 483.9 390.3C480.5 390.2 475.6 388.7 471.8 385.2C468 381.6 466.6 377.1 466.5 374C466.4 370.8 467.4 368.9 467.9 369Z" fill="#263238"/>
<path d="M468.9 295.7C468.1 297.6 461.1 296.1 452.7 296.5C444.3 296.7 437.4 298.6 436.4 296.8C436 295.9 437.3 294.3 440.1 292.6C442.9 291 447.3 289.6 452.4 289.4C457.4 289.2 461.9 290.4 464.9 291.8C467.9 293.3 469.3 294.9 468.9 295.7Z" fill="#263238"/>
<path d="M538 297.2C536.5 298.8 530.8 297.2 524 297.2C517.1 296.9 511.4 298.3 510 296.6C509.4 295.8 510.3 294.2 512.8 292.7C515.3 291.2 519.5 290 524.2 290.1C528.9 290.2 533 291.6 535.4 293.2C537.8 294.8 538.6 296.5 538 297.2Z" fill="#263238"/>
<path d="M483.1 211.2C479.4 204.8 472.5 202 464.7 200.8C433.2 196 398.1 215 380.4 241.5C362.7 268 361.8 307.6 374.7 336.7L394.4 324.5C433.8 308.2 461.7 270.2 487.1 230.9C490.5 225.5 486.3 216.7 483.1 211.2Z" fill="#263238"/>
<path d="M531.6 228.5C518.4 213.5 508.8 198.6 481.4 209C477.4 216.6 485.5 226.6 492.3 232.4C502.2 240.9 510.9 246.6 517.4 252.7C530.6 265 545.5 306.4 546.8 329C546.9 330.4 549.3 309.6 550.8 309.4C552.6 309.1 560 300 559 287.6C555.6 245.3 544.7 243.5 531.6 228.5Z" fill="#263238"/>
<path d="M464.7 200.8C464.7 200.6 467.1 200.3 470.9 201.3C474.6 202.4 479.5 205 483.3 209.5C484.3 210.6 485.1 211.8 485.8 213.1C486.5 214.3 486.9 215.7 487.2 216.8C488 219.2 488.6 221.4 488.9 223.3C489.4 227.2 488.5 229.5 488.3 229.5C488 229.4 488.4 227.1 487.5 223.6C487.1 221.8 486.4 219.7 485.6 217.4C485.1 216.2 484.8 215 484.2 214C483.6 212.9 482.7 211.8 481.9 210.7C478.3 206.5 473.8 203.9 470.4 202.6C467 201.3 464.7 201.1 464.7 200.8Z" fill="#455A64"/>
<path d="M530.3 334.9C530.4 338.1 527.9 340.8 524.6 341C521.3 341.3 518.5 338.9 518.3 335.8C518.2 332.6 520.7 329.9 524 329.6C527.3 329.4 530.1 331.7 530.3 334.9Z" fill="#263238"/>
<path d="M464.4 335.3C464.6 338.5 462 341.2 458.7 341.5C455.4 341.7 452.6 339.3 452.5 336.2C452.3 333 454.8 330.3 458.1 330C461.4 329.8 464.2 332.2 464.4 335.3Z" fill="#263238"/>
<path d="M283.1 385.4C286.8 379.3 291 373.5 297.9 371C304.8 368.4 312.4 366.9 317.8 362C326.1 354.3 325.8 341.5 325 330.3C324.2 319.2 324 306.3 332.6 298.8C339.8 292.6 351.1 292 357.3 284.9C361.5 280.1 362.3 273.5 363.7 267.4C367.7 251 376.7 222.5 424.8 206.1L382.2 368C385.4 368.9 393 376.1 393.4 381C393.8 385.6 391.8 390.2 391.8 394.8C391.7 400.4 397.9 403.8 401.8 408C406.7 413.3 408.2 420.9 407.5 428C406.7 435.1 402.5 449.6 399.8 456.2C360.3 452.2 302.6 450.9 272.5 425.7C267 421.1 274.8 399 283.1 385.4Z" fill="#263238"/>
<path d="M394.4 324.5C393.6 324.1 364.5 312.5 362.7 343.2C360.8 373.8 392 369.3 392.1 368.4C392.2 367.6 394.4 324.5 394.4 324.5Z" fill="#FFBE9D"/>
<path d="M383.4 356.3C383.3 356.2 382.9 356.6 381.9 357C381 357.3 379.5 357.5 377.9 356.8C374.8 355.4 372.4 350.1 372.5 344.6C372.6 341.8 373.4 339.2 374.5 337.1C375.6 334.9 377.1 333.4 378.8 333.2C380.4 332.9 381.5 334 381.8 334.9C382.2 335.7 381.9 336.3 382.1 336.4C382.2 336.5 382.8 335.9 382.6 334.6C382.5 334 382.2 333.3 381.5 332.7C380.8 332 379.8 331.6 378.6 331.7C376.3 331.7 374 333.8 372.8 336.1C371.4 338.5 370.5 341.4 370.4 344.5C370.2 350.7 373 356.7 377.4 358.2C379.5 358.9 381.3 358.4 382.3 357.7C383.3 357 383.5 356.3 383.4 356.3Z" fill="#EB996E"/>
<path d="M503.3 332.5C503.4 332.5 503.2 330 504.3 325.6C505.3 321.4 508 315.1 514.3 310.1C517.4 307.7 521.4 305.7 526 304.8C530.5 303.9 535.7 304 540.6 305.8C543.1 306.6 545.5 307.9 547.7 309.5C549.9 311 551.9 313 553.6 315.3C557.1 319.8 559.1 325.6 559.3 331.6C559.3 337.6 557.5 343.5 554.1 348.1C552.5 350.4 550.6 352.4 548.4 354.1C546.2 355.7 543.9 357.1 541.4 358C536.6 359.9 531.4 360.1 526.8 359.4C522.2 358.7 518.2 356.8 515 354.5C508.6 349.7 505.6 343.5 504.5 339.3C503.3 335 503.4 332.5 503.3 332.5C503.3 332.5 503.3 332.633 503.3 332.9C503.3 333.3 503.3 333.767 503.3 334.3C503.3 334.9 503.4 335.6 503.5 336.5C503.6 337.3 503.8 338.3 504.1 339.4C505.1 343.7 508 350.1 514.6 355.1C517.8 357.5 522 359.5 526.7 360.3C531.4 361.1 536.7 360.9 541.8 358.9C544.3 357.9 546.7 356.6 549 354.9C551.2 353.2 553.3 351.1 555 348.7C558.5 343.9 560.4 337.8 560.3 331.6C560.2 325.3 558.1 319.3 554.4 314.7C552.7 312.3 550.6 310.3 548.2 308.7C546 307 543.5 305.7 540.9 304.9C535.8 303.1 530.5 303 525.8 303.9C521.1 304.9 517 307.1 513.9 309.6C507.4 314.7 504.8 321.2 503.9 325.5C503.6 326.6 503.5 327.6 503.4 328.5C503.3 329.4 503.2 330.1 503.2 330.7C503.2 331.233 503.234 331.667 503.3 332C503.3 332.333 503.3 332.5 503.3 332.5Z" fill="#455A64"/>
<path d="M426 333.7C426.2 333.7 425.9 331.2 427 326.9C428 322.6 430.7 316.3 437 311.4C440.1 309 444.1 306.9 448.7 306C453.2 305.2 458.4 305.2 463.3 307C465.8 307.9 468.2 309.1 470.4 310.7C472.6 312.3 474.6 314.2 476.3 316.5C479.8 321 481.8 326.8 482 332.8C482 338.8 480.2 344.7 476.9 349.3C475.2 351.6 473.3 353.7 471.1 355.3C468.9 357 466.6 358.3 464.1 359.2C459.3 361.2 454.1 361.4 449.5 360.7C444.9 360 440.9 358 437.7 355.7C431.3 351 428.3 344.8 427.2 340.6C426 336.2 426.2 333.7 426 333.7C426 333.7 426 333.867 426 334.2C426 334.533 426 334.967 426 335.5C426 336.1 426.1 336.9 426.2 337.7C426.3 338.6 426.5 339.6 426.8 340.7C427.8 345 430.7 351.4 437.3 356.3C440.5 358.7 444.7 360.7 449.4 361.5C454.1 362.3 459.4 362.1 464.5 360.1C467 359.2 469.5 357.8 471.7 356.1C474 354.4 476 352.3 477.7 349.9C481.2 345.1 483.1 339 483 332.8C482.9 326.6 480.8 320.5 477.1 315.9C475.4 313.5 473.3 311.5 471 309.9C468.7 308.3 466.2 307 463.6 306.1C458.5 304.3 453.2 304.3 448.5 305.2C443.8 306.1 439.7 308.3 436.6 310.8C430.2 315.9 427.5 322.4 426.6 326.8C426.3 327.9 426.2 328.9 426.1 329.7C426 330.6 425.9 331.3 426 331.9C426 332.433 426 332.9 426 333.3C426 333.567 426 333.7 426 333.7Z" fill="#455A64"/>
<path d="M481.2 331.6C481.3 331.7 482.2 330.4 484 328.9C485.8 327.4 488.9 325.9 492.5 325.8C496.1 325.7 499.2 327.2 501.1 328.6C503 330 503.8 331.3 504 331.2C504.1 331.2 503.4 329.7 501.5 328C499.7 326.4 496.4 324.7 492.5 324.7C488.5 324.8 485.3 326.7 483.5 328.4C481.7 330.1 481.1 331.6 481.2 331.6Z" fill="#455A64"/>
<path d="M387.3 322.5C387.3 322.6 389.5 323.1 393 323.7C396.5 324.2 401.4 324.7 406.8 325.2C412.1 325.7 416.8 326.1 420.7 326.5C424.2 326.8 426.4 327.1 426.4 326.9C426.5 326.8 424.3 326.3 420.8 325.7C417.3 325.2 412.4 324.7 406.9 324.2C401.7 323.7 397 323.3 393.1 322.9C389.6 322.6 387.4 322.3 387.3 322.5Z" fill="#455A64"/>
<path d="M547.9 349.8C547.7 349.6 551.8 346.1 553.9 340.1C556.2 334.2 555.3 328.9 555.7 328.9C555.8 328.8 556.2 330.1 556.3 332.3C556.3 334.4 556 337.4 554.9 340.5C553.8 343.6 552 346 550.6 347.6C549.1 349.2 548 349.9 547.9 349.8Z" fill="white"/>
<path d="M552.8 318.2C552.9 317.9 554.1 318.5 554.7 319.9C555.4 321.2 555.1 322.5 554.8 322.5C554.5 322.5 554.3 321.4 553.8 320.3C553.2 319.2 552.6 318.4 552.8 318.2Z" fill="white"/>
<path d="M477.3 343.7C477.2 343.7 477.7 342.1 478.2 339.5C478.6 337 478.8 333.3 478.1 329.4C477.4 325.5 475.9 322.2 474.5 319.9C473.2 317.7 472.1 316.4 472.2 316.3C472.3 316.2 473.6 317.3 475.1 319.5C476.7 321.7 478.4 325.1 479.1 329.2C479.9 333.3 479.6 337.1 478.9 339.7C478.2 342.3 477.4 343.8 477.3 343.7Z" fill="white"/>
<path d="M371 368C371 368.1 370.5 368.6 369.9 369.7C369.3 370.8 368.6 372.6 368.6 374.8C368.6 377 369.3 379.8 371.5 381.8C373.5 383.8 376.8 385.1 380.1 384.6C383.4 383.9 386 381.6 387.3 378.9C388.5 376.3 388.3 373.5 387.5 371.4C386.7 369.3 385.4 367.9 384.5 367.1C383.5 366.3 382.9 365.9 382.9 365.9C382.9 365.8 383.6 366 384.7 366.8C385.8 367.5 387.2 368.9 388.2 371.1C389.1 373.3 389.5 376.4 388.1 379.3C386.8 382.2 384 384.9 380.3 385.6C376.6 386.2 373 384.7 370.8 382.5C368.5 380.2 367.7 377.1 367.9 374.8C368 372.4 368.8 370.6 369.6 369.5C370.3 368.4 370.9 368 371 368Z" fill="#E0E0E0"/>
<path d="M539.9 391.6C540 391.4 541.9 392.9 545.3 391.9C546.9 391.5 548.7 390.5 550.2 388.9C551.7 387.3 552.9 385.1 553.3 382.6C553.8 380.1 553.4 377.7 552.5 375.7C551.6 373.7 550.2 372.2 548.9 371.1C546.3 369 544 368.7 544.1 368.5C544.1 368.4 544.7 368.4 545.6 368.7C546.6 368.9 547.9 369.5 549.4 370.5C550.8 371.6 552.3 373.1 553.4 375.3C554.4 377.4 554.9 380.1 554.4 382.8C553.8 385.5 552.5 387.9 550.8 389.6C549.2 391.3 547.2 392.3 545.4 392.7C543.7 393 542.2 392.8 541.2 392.4C540.3 392.1 539.9 391.7 539.9 391.6Z" fill="#E0E0E0"/>
<path d="M428.9 788.7L458.6 797.5C458.6 797.5 474.9 804.5 482.9 806.4C492.8 808.6 499.5 805.6 499.9 800.1C500.2 794.6 492.5 793.9 492.5 793.9C492.5 793.9 480.1 789.1 473.5 785.1C467 781.1 462.9 773 462.9 773L473.5 774.5C473.5 774.5 495.8 790.6 504.2 795.3C512.6 800.1 514.5 791.7 515.2 789.1C515.9 786.5 490.4 760.6 490.4 760.6C490.4 760.6 514.8 776.3 519.2 780.2C523.6 784.2 530.2 785.4 531.7 782.9C533.1 780.3 537.1 780.3 531.7 769.5C526.2 758.6 482.3 729.5 482.3 729.5L494.4 727L507.5 732.8C507.5 732.8 508.3 738.3 513 745.3C517.8 752.4 526.2 745.3 526.2 745.3L521.1 718.4L495.1 702.1C495.1 702.1 468.1 705.4 464 707.2C460 709.1 455.6 716.7 455.6 716.7L448.3 719.7C437 722.9 437.4 734.3 433.7 734.6C430 735 323.4 714.2 323.4 714.2L313.7 711.7C297.8 723.8 291.3 743.9 288.5 761.6C288.5 761.6 285.6 770.4 288.5 775.2L428.9 788.7Z" fill="#FFBE9D"/>
<path d="M409.4 769.8C409.3 769.8 409.3 769.1 409.3 768C409.3 767.467 409.367 766.8 409.5 766C409.6 765.2 409.7 764.3 410 763.3C411 759.4 413.6 754.3 417.5 749.6C421.3 744.8 425.5 741.1 428.5 738.5C431.6 735.9 433.6 734.5 433.7 734.6C433.8 734.8 431.9 736.4 429 739.1C426.1 741.7 422.1 745.5 418.3 750.2C414.5 754.9 411.8 759.7 410.7 763.5C409.6 767.3 409.6 769.8 409.4 769.8Z" fill="#EB996E"/>
<path d="M455.6 716.7C455.7 716.8 454.7 717.2 453.4 718.3C452 719.4 450.2 721.2 448.5 723.8C447.7 725.2 446.8 726.7 446.1 728.3C445.3 730 445.3 732 444.9 734.1C444.6 736.1 444 738.5 442.6 740.4C441.2 742.3 439.8 744.1 439 746.3C437.6 750.2 437.7 754.3 439 757.6L439.1 758L438.8 758.2C433.1 761.8 430.4 767.3 429.4 771.2C428.3 775.1 428.6 777.6 428.5 777.6C428.4 777.6 428.3 777 428.3 775.8C428.2 774.7 428.3 773 428.8 771C429.6 767 432.3 761.2 438.3 757.4L438.1 758C436.7 754.4 436.5 750 438 746C438.9 743.6 440.5 741.6 441.7 739.8C443 738 443.6 736 444 733.9C444.4 731.9 444.4 729.8 445.3 728C446 726.2 447 724.8 447.9 723.4C449.7 720.8 451.6 719 453.1 717.9C453.9 717.4 454.5 717.1 454.9 716.9C455.367 716.767 455.6 716.7 455.6 716.7Z" fill="#EB996E"/>
<path d="M481.3 728.7C481.3 728.9 477.8 729.3 473.7 727.8C469.7 726.4 467.2 723.9 467.4 723.7C467.6 723.5 470.2 725.5 474.1 726.9C477.9 728.3 481.3 728.4 481.3 728.7Z" fill="#EB996E"/>
<path d="M488.1 758.2C488 758.5 483 756.6 476.9 753.9C470.8 751.3 466 748.9 466.1 748.7C466.2 748.4 471.2 750.3 477.3 753C483.4 755.6 488.3 757.9 488.1 758.2Z" fill="#EB996E"/>
<path d="M464.1 772.8C463.9 773.1 461.4 771.9 458.3 770.6C455.2 769.4 452.6 768.4 452.7 768.1C452.8 767.9 455.5 768.4 458.7 769.7C461.9 771 464.2 772.6 464.1 772.8Z" fill="#EB996E"/>
<path d="M484.5 760.1C484.6 760.4 482 761.3 480 763.8C478 766.4 477.7 769.1 477.4 769C477.3 769 477.1 768.3 477.3 767.2C477.5 766.1 478.1 764.6 479.2 763.2C480.3 761.8 481.6 760.9 482.7 760.5C483.7 760 484.4 760 484.5 760.1Z" fill="#EB996E"/>
<path d="M495.2 743.9C495.3 744.2 493.3 745.2 492 747.4C490.7 749.6 490.6 751.8 490.3 751.8C490.1 751.9 489.6 749.4 491.1 746.9C492.7 744.3 495.1 743.6 495.2 743.9Z" fill="#EB996E"/>
<path d="M492.2 714.5C492.1 714.5 491.7 714 491.4 713.1C491.1 712.1 491 710.7 491.3 709.2C491.7 707.7 492.5 706.5 493.3 705.8C494 705.1 494.6 704.8 494.7 704.9C494.9 705.2 493 706.7 492.4 709.4C491.6 712.1 492.5 714.4 492.2 714.5Z" fill="#EB996E"/>
<path d="M708.4 723.7C708.4 723.7 707 697.5 679.8 692C652.7 686.6 605.1 709.7 605.1 709.7L471.6 802.7L475.6 814.2L611 795.3L623.4 800.1L718.6 737.6L808.4 672.7L798.5 664.8C798.5 664.8 773.3 682.2 756.7 689.6C740 697.1 715.9 710.2 708.4 723.7Z" fill="#F5F5F5"/>
<path d="M469.5 818L582.4 747.8L701.8 728.7C701.8 728.7 707.8 737.3 718 735.2L816.2 667.3L818 671.4L627.6 805.1C620.7 807.3 615.4 805.6 611 801.9L469.5 818Z" fill="#455A64"/>
<path d="M701.8 728.7C701.867 728.7 701.567 728.933 700.9 729.4C700.167 729.933 699.267 730.6 698.2 731.4C695.8 733.1 692.3 735.6 688.1 738.8C679.6 745.1 668.1 754.1 655.6 764.3C643.2 774.5 632 783.9 624 790.8C620.1 794.2 616.9 796.9 614.6 799C613.533 799.867 612.667 800.6 612 801.2C611.4 801.667 611.067 801.9 611 801.9C611 801.833 611.267 801.533 611.8 801C612.467 800.4 613.3 799.633 614.3 798.7C616.4 796.6 619.6 793.7 623.5 790.2C631.4 783.2 642.5 773.7 655 763.5C667.5 753.3 679 744.4 687.6 738.2C691.9 735.1 695.5 732.7 697.9 731.1C699.1 730.367 700.067 729.733 700.8 729.2C701.467 728.8 701.8 728.633 701.8 728.7Z" fill="#263238"/>
<path d="M700.6 714.1C689.8 702.4 672.8 698.3 656.9 699.5C641.1 700.8 626.1 706.7 611.3 712.5L473.1 807.1L474.3 810.7L613.3 716.6C613.3 716.6 644.3 706.6 658 704.9C681.1 702.1 700.6 714.1 700.6 714.1Z" fill="#E0E0E0"/>
<path d="M722.3 726.5L788.7 681.7C788.7 681.7 734.3 710 722.3 726.5Z" fill="#E0E0E0"/>
<path d="M473.1 807.1C473.1 807.1 473.3 806.967 473.7 806.7C474.1 806.367 474.667 805.933 475.4 805.4C476.933 804.333 479.133 802.8 482 800.8C487.8 796.7 496.2 791 506.5 783.8C527.3 769.6 555.9 749.9 587.5 728.2C595.5 722.7 603.4 717.3 611 712.1H611.1C625.6 705.8 639.8 701.3 653.1 699.4C666.4 697.8 678.6 700 687.6 704.3C692 706.4 695.7 709 698.6 711.7C701.4 714.4 703.4 717.1 704.7 719.5C706.1 721.9 706.7 723.9 707.1 725.3C707.3 725.967 707.433 726.5 707.5 726.9C707.567 727.233 707.6 727.4 707.6 727.4C707.4 727.5 707.2 724.4 704.4 719.7C703.1 717.4 701.1 714.7 698.2 712.1C695.4 709.5 691.7 706.9 687.3 704.9C678.4 700.8 666.4 698.6 653.2 700.3C640.1 702.2 625.9 706.7 611.5 713H611.6C604 718.1 596.1 723.5 588.1 729.1C556.4 750.7 527.7 770.2 506.9 784.4C496.5 791.4 488.1 797.1 482.2 801.1C479.333 803.033 477.1 804.533 475.5 805.6C474.767 806.067 474.167 806.467 473.7 806.8C473.3 807 473.1 807.1 473.1 807.1Z" fill="#263238"/>
<path d="M594.1 735.6C594.033 735.6 594.367 735.4 595.1 735C595.8 734.6 596.8 734 598.2 733.3C600.9 731.9 604.8 730 609.8 727.7C619.7 723.3 633.8 717.7 650.3 715.3C666.8 713 682.2 715.3 692.4 719.2C697.5 721.1 701.4 723.1 704 724.7C705.3 725.5 706.2 726.2 706.9 726.7C707.567 727.167 707.9 727.4 707.9 727.4C707.8 727.5 706.4 726.6 703.8 725.1C701.2 723.6 697.2 721.6 692.1 719.9C682 716.2 666.8 714 650.5 716.4C634.1 718.7 620 724.2 610.1 728.4C605.1 730.6 601.1 732.4 598.4 733.7C597.067 734.3 596 734.8 595.2 735.2C594.467 735.533 594.1 735.667 594.1 735.6Z" fill="#263238"/>
<path d="M804.8 669.8C804.8 669.867 804.5 670.1 803.9 670.5C803.233 670.967 802.4 671.533 801.4 672.2C799 673.8 795.7 675.8 791.8 678.4C783.7 683.6 772.5 690.8 760.2 698.8C747.9 706.9 736.9 714.3 728.9 719.7C725 722.4 721.8 724.5 719.5 726.1C718.433 726.767 717.567 727.333 716.9 727.8C716.3 728.2 715.967 728.367 715.9 728.3C715.9 728.3 716.2 728.067 716.8 727.6C717.467 727.133 718.3 726.533 719.3 725.8C721.4 724.2 724.6 721.9 728.5 719.1C736.4 713.6 747.4 706 759.6 698C771.9 689.9 783.2 682.8 791.4 677.8C795.5 675.2 798.8 673.2 801.1 671.9C802.233 671.233 803.133 670.7 803.8 670.3C804.467 669.967 804.8 669.8 804.8 669.8Z" fill="#263238"/>
<path d="M744.4 741.8C744.4 741.8 741.8 748 739.2 751C736.7 754 728.3 758.3 727.6 764.1C727 769.9 728.3 783.4 719.3 793.7C710.3 804 697.9 807.6 697.9 807.6L662.2 804.2L605.3 781.7C605.3 781.7 600.6 780.5 601.6 775.8C602.3 772.9 604.7 770.9 607.6 770.4L608.9 770.2C608.9 770.2 605.6 767.5 610.3 762.8C614.4 758.7 622.9 761.1 627.3 762.5C631.7 764 657.5 774.8 662.1 776.4C666.2 777.9 669.4 779.2 669.4 779.2C669.4 779.2 636.3 756.9 635.9 754C635.3 750.5 635.7 748.9 639.1 746.4C643 743.5 649.6 746.6 656 749.3C660.7 751.3 691 766.2 691 766.2C691 766.2 692.3 764.9 691 762.2C689.8 759.5 679.6 746.6 678.1 744.3C676.5 741.9 676.1 740.5 677.6 738.5C679.8 735.6 685.7 734.3 691 739.1C694.4 742.3 706.4 750.3 706.4 750.3L761.9 709.9C761.9 709.9 768.8 709.7 766.4 719.3C764 728.9 744.4 741.8 744.4 741.8Z" fill="#FFBE9D"/>
<path d="M703 775.5C703 775.8 699.9 775 697 772.5C694.1 770.1 692.8 767.2 693.1 767.1C693.3 766.9 694.9 769.4 697.7 771.7C700.4 774 703.1 775.2 703 775.5Z" fill="#EB996E"/>
<path d="M707.6 751.4C707.6 751.2 708.3 751 709.5 751.2C710.7 751.3 712.3 751.9 713.8 753.1C715.2 754.3 716.1 755.8 716.4 756.9C716.8 758.1 716.8 758.8 716.6 758.8C716.3 758.9 715.8 756 713.1 753.9C710.5 751.7 707.5 751.7 707.6 751.4Z" fill="#EB996E"/>
<path d="M710.2 762.5C709.9 762.5 709.7 759.5 708.6 756.1C707.4 752.7 705.7 750.2 706 750C706.2 749.8 708.3 752.1 709.5 755.8C710.8 759.4 710.5 762.5 710.2 762.5Z" fill="#EB996E"/>
<path d="M743 738.9C743 739 742.3 738.6 741.6 737.6C740.9 736.7 740.2 735.1 740 733.3C739.8 731.5 740.1 729.8 740.6 728.7C741.1 727.6 741.6 727.1 741.7 727.2C742 727.3 740.6 729.8 741 733.2C741.3 736.6 743.3 738.7 743 738.9Z" fill="#EB996E"/>
<path d="M692.9 789.5C692.9 789.6 691.4 789.8 689 789.4C686.6 789 683.3 788 680.2 786.1C677 784.3 674.4 782.2 672.6 780.6C670.8 779.1 669.7 778 669.8 777.9C669.9 777.8 671.1 778.6 673 780C675 781.5 677.6 783.4 680.7 785.2C683.8 787 686.8 788.2 689.1 788.7C691.4 789.2 692.9 789.3 692.9 789.5Z" fill="#EB996E"/>
<path d="M702.1 783.7C702.4 783.7 702.4 785.8 700.8 787.4C699.1 789 697 789 697.1 788.7C697 788.4 698.7 788 700 786.6C701.4 785.3 701.8 783.7 702.1 783.7Z" fill="#EB996E"/>
<path d="M715.8 773.7C715.9 773.8 715.9 774.3 715.5 775C715.1 775.7 714.4 776.6 713.2 777.1C712.1 777.6 711 777.7 710.2 777.5C709.4 777.4 709 777 709.1 776.9C709.2 776.6 710.9 777.1 712.8 776.1C714.7 775.3 715.5 773.6 715.8 773.7Z" fill="#EB996E"/>
<path d="M667.7 796.4C667.6 796.7 654.4 791.2 638.1 784.1C621.9 777 608.8 771 608.9 770.8C609 770.5 622.3 776 638.5 783.1C654.8 790.2 667.8 796.2 667.7 796.4Z" fill="#EB996E"/>
<path d="M901.3 814.3C901.3 814.6 699.7 814.8 451 814.8C202.3 814.8 0.699951 814.6 0.699951 814.3C0.699951 814 202.3 813.8 451 813.8C699.7 813.8 901.3 814 901.3 814.3Z" fill="#263238"/>
<path d="M26.3999 601.2L69.7999 814.3H370.7H446.5C450.7 814.3 454.1 810.9 454.1 806.8C454.1 802.6 450.7 799.2 446.5 799.2H370.7L330.5 601.1C329.7 597.3 326.4 594.5 322.5 594.5L34.5999 591.3C29.3999 591.3 25.3999 596.1 26.3999 601.2Z" fill="#E0E0E0"/>
<path d="M26.3998 601.2C26.3998 601.2 26.3665 601 26.2998 600.6C26.2998 600.2 26.1998 599.5 26.2998 598.6C26.3998 597 27.2998 594.2 30.2998 592.4C31.0331 592 31.8665 591.667 32.7998 591.4C33.6998 591.2 34.6998 591.2 35.6998 591.2C37.7665 591.267 40.0331 591.3 42.4998 591.3C47.4331 591.367 53.0998 591.4 59.4998 591.4C84.9998 591.7 122.1 592 168.3 592.5C191.4 592.7 216.8 593 244.2 593.2C257.866 593.333 272.033 593.5 286.7 593.7C294.033 593.767 301.466 593.833 309 593.9C312.8 593.967 316.6 594 320.4 594C321.4 594 322.3 594 323.3 594.1C324.3 594.2 325.3 594.5 326.2 594.9C328.1 595.8 329.6 597.4 330.4 599.3C330.8 600.2 331 601.2 331.2 602.2L331.7 605C332.1 606.933 332.5 608.867 332.9 610.8C333.7 614.667 334.5 618.533 335.3 622.4C336.9 630.2 338.5 638.1 340.1 646.1C343.366 662.1 346.7 678.467 350.1 695.2C356.9 728.6 363.9 763.3 371.2 799.1L370.7 798.7C384.9 798.7 399.5 798.7 414.4 798.7C421.8 798.7 429.266 798.7 436.8 798.7H442.4H445.3C446.2 798.7 447.2 798.7 448.2 798.9C450.2 799.3 452 800.5 453.1 802.2C454.3 803.8 454.8 806 454.5 808C454.1 810.4 452.5 812.6 450.4 813.8C449.3 814.4 448.1 814.7 446.8 814.8H443.4C438.733 814.8 434.133 814.8 429.6 814.8C420.4 814.8 411.266 814.8 402.2 814.8C384.133 814.8 366.3 814.8 348.7 814.8C313.5 814.8 279.4 814.8 246.7 814.8C181.3 814.7 121.5 814.7 69.7998 814.7H69.4998V814.4C56.1998 748.9 45.3998 695.6 37.8998 658.7C34.1998 640.2 31.2998 625.9 29.3998 616.1C28.3998 611.233 27.6665 607.533 27.1998 605C26.6998 602.5 26.3998 601.2 26.3998 601.2C26.3998 601.2 26.6998 602.5 27.2998 605C27.8331 607.533 28.5998 611.233 29.5998 616.1C31.5998 625.8 34.5998 640.2 38.3998 658.6C45.8998 695.5 56.7998 748.7 70.1998 814.2L69.7998 813.9C121.5 813.9 181.3 813.8 246.7 813.8C279.4 813.8 313.5 813.8 348.7 813.8C366.3 813.8 384.133 813.8 402.2 813.8C411.266 813.8 420.4 813.8 429.6 813.8C434.133 813.8 438.733 813.8 443.4 813.8L446.8 813.7C447.9 813.7 448.9 813.4 449.9 812.9C451.8 811.9 453.2 810 453.5 807.8C453.7 806.1 453.3 804.2 452.3 802.8C451.3 801.3 449.7 800.3 448 799.9C447.1 799.7 446.2 799.8 445.3 799.7H442.4H436.8C429.266 799.7 421.8 799.7 414.4 799.7C399.5 799.7 384.9 799.7 370.7 799.7H370.3L370.2 799.3C362.9 763.5 355.9 728.8 349.1 695.4C345.7 678.667 342.4 662.3 339.2 646.3C337.533 638.3 335.933 630.4 334.4 622.6C333.6 618.733 332.8 614.867 332 611C331.6 609.067 331.2 607.133 330.8 605.2L330.3 602.3C330.1 601.4 329.9 600.5 329.5 599.6C328.8 597.9 327.5 596.5 325.8 595.7C325 595.3 324.133 595.067 323.2 595C322.3 594.9 321.3 594.9 320.4 594.9C316.6 594.9 312.8 594.867 309 594.8C301.466 594.733 294.033 594.633 286.7 594.5C272.033 594.367 257.866 594.2 244.2 594C216.8 593.7 191.4 593.4 168.3 593.1C122.1 592.6 84.9998 592.1 59.3998 591.8C53.0665 591.733 47.4331 591.667 42.4998 591.6C40.0331 591.533 37.7665 591.5 35.6998 591.5C34.6998 591.5 33.6998 591.4 32.7998 591.6C31.8665 591.8 31.0665 592.133 30.3998 592.6C27.4998 594.3 26.5998 597 26.3998 598.7C26.1998 600.3 26.4998 601.2 26.3998 601.2Z" fill="#263238"/>
<path d="M200 698.7C200 705.6 194.5 711.2 187.6 711.2C180.7 711.2 175.1 705.6 175.1 698.7C175.1 691.9 180.7 686.3 187.6 686.3C194.5 686.3 200 691.9 200 698.7Z" fill="white"/>
<path d="M26.7998 602.9C26.7998 602.9 27.2331 602.9 28.0998 602.9C28.9665 602.9 30.2331 602.9 31.8998 602.9C35.2998 602.9 40.1998 602.9 46.4998 602.9C59.2998 603 77.6998 603 100.4 603.2C145.9 603.5 208.7 603.9 278.1 604.4C286.766 604.467 295.333 604.533 303.8 604.6C305.933 604.6 308.033 604.633 310.1 604.7C311.1 604.7 312.2 604.6 313.3 604.9C314.4 605.1 315.5 605.5 316.4 606.1C318.3 607.3 319.7 609.2 320.2 611.3C320.7 613.4 321 615.3 321.5 617.4C324.6 633.4 327.7 648.9 330.6 663.6C336.5 693.1 341.7 719.7 346.1 742C350.5 764.3 354 782.4 356.5 794.9C357.7 801.1 358.6 805.9 359.2 809.2C359.533 810.867 359.766 812.133 359.9 813C360.1 813.867 360.166 814.3 360.1 814.3C360.1 814.3 360 813.867 359.8 813C359.666 812.133 359.4 810.9 359 809.3C358.4 806 357.4 801.2 356.1 794.9C353.6 782.4 349.9 764.4 345.4 742.2C340.9 719.9 335.6 693.3 329.7 663.8C326.8 649.1 323.7 633.6 320.5 617.6C320 615.6 319.7 613.5 319.2 611.6C318.7 609.7 317.5 608 315.8 607C315 606.4 314.1 606.1 313.1 605.9C312.2 605.7 311.2 605.7 310.1 605.7C308.033 605.7 305.933 605.7 303.8 605.7C295.333 605.633 286.766 605.567 278.1 605.5C208.7 604.8 145.9 604.3 100.4 603.9C77.6998 603.6 59.2998 603.4 46.4998 603.3C40.1998 603.2 35.2998 603.1 31.8998 603.1C30.2331 603.033 28.9665 603 28.0998 603C27.2331 603 26.7998 602.967 26.7998 602.9Z" fill="#263238"/>
</svg>
